<svg id="visual" viewBox="0 0 2160 1080" width="2160" height="1080" xmlns="http://www.w3.org/2000/svg" xmlns:xlink="http://www.w3.org/1999/xlink" version="1.1"><rect x="0" y="0" width="2160" height="1080" fill="#dbebff"></rect><path d="M0 915L24 911.5C48 908 96 901 144 892.3C192 883.7 240 873.3 288 863.5C336 853.7 384 844.3 432 856.7C480 869 528 903 576 917.3C624 931.7 672 926.3 720 905.5C768 884.7 816 848.3 864 836.8C912 825.3 960 838.7 1008 854C1056 869.3 1104 886.7 1152 885.7C1200 884.7 1248 865.3 1296 859C1344 852.7 1392 859.3 1440 876.3C1488 893.3 1536 920.7 1584 928.5C1632 936.3 1680 924.7 1728 923.8C1776 923 1824 933 1872 938.5C1920 944 1968 945 2016 942.2C2064 939.3 2112 932.7 2136 929.3L2160 926L2160 1081L2136 1081C2112 1081 2064 1081 2016 1081C1968 1081 1920 1081 1872 1081C1824 1081 1776 1081 1728 1081C1680 1081 1632 1081 1584 1081C1536 1081 1488 1081 1440 1081C1392 1081 1344 1081 1296 1081C1248 1081 1200 1081 1152 1081C1104 1081 1056 1081 1008 1081C960 1081 912 1081 864 1081C816 1081 768 1081 720 1081C672 1081 624 1081 576 1081C528 1081 480 1081 432 1081C384 1081 336 1081 288 1081C240 1081 192 1081 144 1081C96 1081 48 1081 24 1081L0 1081Z" fill="#254fcc"></path><path d="M0 874L24 889.3C48 904.7 96 935.3 144 948.8C192 962.3 240 958.7 288 940C336 921.3 384 887.7 432 882.5C480 877.3 528 900.7 576 918.8C624 937 672 950 720 955.3C768 960.7 816 958.3 864 956.5C912 954.7 960 953.3 1008 940.5C1056 927.7 1104 903.3 1152 907C1200 910.7 1248 942.3 1296 938C1344 933.7 1392 893.3 1440 883.8C1488 874.3 1536 895.7 1584 905.3C1632 915 1680 913 1728 916C1776 919 1824 927 1872 927.7C1920 928.3 1968 921.7 2016 909.3C2064 897 2112 879 2136 870L2160 861L2160 1081L2136 1081C2112 1081 2064 1081 2016 1081C1968 1081 1920 1081 1872 1081C1824 1081 1776 1081 1728 1081C1680 1081 1632 1081 1584 1081C1536 1081 1488 1081 1440 1081C1392 1081 1344 1081 1296 1081C1248 1081 1200 1081 1152 1081C1104 1081 1056 1081 1008 1081C960 1081 912 1081 864 1081C816 1081 768 1081 720 1081C672 1081 624 1081 576 1081C528 1081 480 1081 432 1081C384 1081 336 1081 288 1081C240 1081 192 1081 144 1081C96 1081 48 1081 24 1081L0 1081Z" fill="#203faa"></path><path d="M0 938L24 933.5C48 929 96 920 144 929.8C192 939.7 240 968.3 288 980.5C336 992.7 384 988.3 432 978C480 967.7 528 951.3 576 953C624 954.7 672 974.3 720 974.7C768 975 816 956 864 942.8C912 929.7 960 922.3 1008 925.5C1056 928.7 1104 942.3 1152 945.8C1200 949.3 1248 942.7 1296 949.3C1344 956 1392 976 1440 988.2C1488 1000.3 1536 1004.7 1584 999.2C1632 993.7 1680 978.3 1728 961.2C1776 944 1824 925 1872 924C1920 923 1968 940 2016 951.3C2064 962.7 2112 968.3 2136 971.2L2160 974L2160 1081L2136 1081C2112 1081 2064 1081 2016 1081C1968 1081 1920 1081 1872 1081C1824 1081 1776 1081 1728 1081C1680 1081 1632 1081 1584 1081C1536 1081 1488 1081 1440 1081C1392 1081 1344 1081 1296 1081C1248 1081 1200 1081 1152 1081C1104 1081 1056 1081 1008 1081C960 1081 912 1081 864 1081C816 1081 768 1081 720 1081C672 1081 624 1081 576 1081C528 1081 480 1081 432 1081C384 1081 336 1081 288 1081C240 1081 192 1081 144 1081C96 1081 48 1081 24 1081L0 1081Z" fill="#19308a"></path><path d="M0 1027L24 1014C48 1001 96 975 144 974.7C192 974.3 240 999.7 288 1001C336 1002.3 384 979.7 432 971.8C480 964 528 971 576 983C624 995 672 1012 720 1010.5C768 1009 816 989 864 982.7C912 976.3 960 983.7 1008 990.7C1056 997.7 1104 1004.3 1152 1009.8C1200 1015.3 1248 1019.7 1296 1020.7C1344 1021.7 1392 1019.3 1440 1008.2C1488 997 1536 977 1584 965.8C1632 954.7 1680 952.3 1728 951.3C1776 950.3 1824 950.7 1872 953.8C1920 957 1968 963 2016 968.8C2064 974.7 2112 980.3 2136 983.2L2160 986L2160 1081L2136 1081C2112 1081 2064 1081 2016 1081C1968 1081 1920 1081 1872 1081C1824 1081 1776 1081 1728 1081C1680 1081 1632 1081 1584 1081C1536 1081 1488 1081 1440 1081C1392 1081 1344 1081 1296 1081C1248 1081 1200 1081 1152 1081C1104 1081 1056 1081 1008 1081C960 1081 912 1081 864 1081C816 1081 768 1081 720 1081C672 1081 624 1081 576 1081C528 1081 480 1081 432 1081C384 1081 336 1081 288 1081C240 1081 192 1081 144 1081C96 1081 48 1081 24 1081L0 1081Z" fill="#11226b"></path><path d="M0 1046L24 1043C48 1040 96 1034 144 1032C192 1030 240 1032 288 1028.7C336 1025.3 384 1016.7 432 1012C480 1007.3 528 1006.7 576 1014.7C624 1022.7 672 1039.3 720 1037.2C768 1035 816 1014 864 1012C912 1010 960 1027 1008 1030.2C1056 1033.3 1104 1022.7 1152 1016.8C1200 1011 1248 1010 1296 1010.5C1344 1011 1392 1013 1440 1016.3C1488 1019.7 1536 1024.3 1584 1022C1632 1019.7 1680 1010.3 1728 1007.7C1776 1005 1824 1009 1872 1009.3C1920 1009.7 1968 1006.3 2016 1003.2C2064 1000 2112 997 2136 995.5L2160 994L2160 1081L2136 1081C2112 1081 2064 1081 2016 1081C1968 1081 1920 1081 1872 1081C1824 1081 1776 1081 1728 1081C1680 1081 1632 1081 1584 1081C1536 1081 1488 1081 1440 1081C1392 1081 1344 1081 1296 1081C1248 1081 1200 1081 1152 1081C1104 1081 1056 1081 1008 1081C960 1081 912 1081 864 1081C816 1081 768 1081 720 1081C672 1081 624 1081 576 1081C528 1081 480 1081 432 1081C384 1081 336 1081 288 1081C240 1081 192 1081 144 1081C96 1081 48 1081 24 1081L0 1081Z" fill="#08154d"></path></svg>