<svg id="visual" viewBox="0 0 2160 2160" width="2160" height="2160" xmlns="http://www.w3.org/2000/svg" xmlns:xlink="http://www.w3.org/1999/xlink" version="1.1"><rect x="0" y="0" width="2160" height="2160" fill="#d2e0e7"></rect><path d="M0 1629L51.5 1595.5C103 1562 206 1495 308.8 1534C411.7 1573 514.3 1718 617.2 1706.2C720 1694.3 823 1525.7 925.8 1471.7C1028.7 1417.7 1131.3 1478.3 1234.2 1534.7C1337 1591 1440 1643 1542.8 1654.3C1645.7 1665.7 1748.3 1636.3 1851.2 1583.5C1954 1530.7 2057 1454.3 2108.5 1416.2L2160 1378L2160 2161L2108.5 2161C2057 2161 1954 2161 1851.2 2161C1748.3 2161 1645.7 2161 1542.8 2161C1440 2161 1337 2161 1234.2 2161C1131.3 2161 1028.7 2161 925.8 2161C823 2161 720 2161 617.2 2161C514.3 2161 411.7 2161 308.8 2161C206 2161 103 2161 51.5 2161L0 2161Z" fill="#0d3f89" stroke-linecap="round" stroke-linejoin="miter"></path></svg>