<?xml version="1.0" encoding="utf-8"?>
<!-- Generator: Adobe Illustrator 24.0.3, SVG Export Plug-In . SVG Version: 6.00 Build 0)  -->
<svg version="1.1" id="Layer_1" xmlns="http://www.w3.org/2000/svg" xmlns:xlink="http://www.w3.org/1999/xlink" x="0px" y="0px"
	 viewBox="0 0 2000 1500" enable-background="new 0 0 2000 2000" xml:space="preserve">
<g>
	<path fill-rule="evenodd" clip-rule="evenodd" fill="#002554" d="M1844.548,908.038c43.202,0,78.276,17.179,78.276,38.335
		c0,21.154-35.074,38.333-78.276,38.333c-43.203,0-78.282-17.179-78.282-38.333C1766.266,925.216,1801.344,908.038,1844.548,908.038
		L1844.548,908.038z"/>
	<polygon opacity="0.3" fill-rule="evenodd" clip-rule="evenodd" fill="#73BAFF" points="500.462,673.706 434.892,635.848 
		297.014,715.452 362.582,753.31 500.462,673.706 	"/>
	<polygon opacity="0.3" fill-rule="evenodd" clip-rule="evenodd" fill="#73BAFF" points="559.301,707.676 509.411,678.869 
		371.53,758.475 421.423,787.28 559.301,707.676 	"/>
	<polygon opacity="0.3" fill-rule="evenodd" clip-rule="evenodd" fill="#73BAFF" points="622.734,744.301 572.843,715.493 
		434.965,795.097 484.856,823.905 622.734,744.301 	"/>
	<polygon fill-rule="evenodd" clip-rule="evenodd" fill="#964DFF" points="437.141,402.182 304.871,478.546 304.871,700.858 
		437.141,624.494 437.141,402.182 	"/>
	<polygon fill-rule="evenodd" clip-rule="evenodd" fill="#964DFF" points="445.851,407.21 313.582,483.574 313.582,705.887 
		445.851,629.523 445.851,407.21 	"/>
	<polygon fill-rule="evenodd" clip-rule="evenodd" fill="#F1F1F1" points="474.779,441.992 438.32,420.943 326.125,485.719 
		362.582,506.766 474.779,441.992 	"/>
	<g>
		<defs>
			<polygon id="SVGID_1_" points="366.416,514.077 304.871,478.546 304.871,700.858 366.416,736.39 366.416,514.077 			"/>
		</defs>
		<clipPath id="SVGID_2_">
			<use xlink:href="#SVGID_1_"  overflow="visible"/>
		</clipPath>
		<g clip-path="url(#SVGID_2_)">
			
				<image overflow="visible" width="56" height="218" xlink:href="4C41E960AD151408.jpg"  transform="matrix(1.2045 0 0 -1.2045 302.2656 739.3313)">
			</image>
		</g>
	</g>
	<polygon fill-rule="evenodd" clip-rule="evenodd" fill="#EBC1FF" points="313.702,473.589 313.582,473.52 304.993,478.477 
		305.113,478.543 304.993,478.617 313.582,483.574 313.702,483.506 357.946,509.049 357.826,509.12 366.416,514.077 
		366.538,514.009 366.832,514.18 375.42,509.22 375.126,509.049 498.686,437.713 490.095,432.756 366.538,504.092 322.294,478.543 
		445.851,407.21 437.261,402.25 313.702,473.589 	"/>
	<g>
		<defs>
			<polygon id="SVGID_3_" points="498.686,437.713 366.416,514.077 366.416,736.39 498.686,660.023 498.686,437.713 			"/>
		</defs>
		<clipPath id="SVGID_4_">
			<use xlink:href="#SVGID_3_"  overflow="visible"/>
		</clipPath>
		<g transform="matrix(1 0 0 1 0 6.103516e-05)" clip-path="url(#SVGID_4_)">
			
				<image overflow="visible" width="116" height="252" xlink:href="4C41E960AD151409.jpg"  transform="matrix(1.2045 0 0 -1.2045 363.4997 739.5566)">
			</image>
		</g>
	</g>
	<polygon fill-rule="evenodd" clip-rule="evenodd" fill="#964DFF" points="512.499,445.691 380.233,522.055 380.233,744.367 
		512.499,668.003 512.499,445.691 	"/>
	<polygon fill-rule="evenodd" clip-rule="evenodd" fill="#964DFF" points="520.968,450.58 388.703,526.944 388.703,749.256 
		520.968,672.889 520.968,450.58 	"/>
	<polygon fill-rule="evenodd" clip-rule="evenodd" fill="#F1F1F1" points="533.608,477.181 512.499,464.994 398.715,530.688 
		419.828,542.875 533.608,477.181 	"/>
	<g>
		<defs>
			<polygon id="SVGID_5_" points="423.66,547.127 380.233,522.055 380.233,744.367 423.66,769.439 423.66,547.127 			"/>
		</defs>
		<clipPath id="SVGID_6_">
			<use xlink:href="#SVGID_5_"  overflow="visible"/>
		</clipPath>
		<g transform="matrix(1 0 0 1 -3.051758e-05 0)" clip-path="url(#SVGID_6_)">
			
				<image overflow="visible" width="44" height="209" xlink:href="4C41E960AD15140F.jpg"  transform="matrix(1.2045 0 0 -1.2045 377.6983 772.4876)">
			</image>
		</g>
	</g>
	<polygon fill-rule="evenodd" clip-rule="evenodd" fill="#EBC1FF" points="512.382,445.621 380.11,521.985 388.703,526.944 
		388.82,526.875 415.194,542.099 415.071,542.17 423.66,547.127 423.781,547.059 424.077,547.23 432.666,542.27 432.37,542.099 
		555.929,470.765 547.336,465.806 423.781,537.14 397.411,521.914 520.968,450.582 512.382,445.621 	"/>
	<g>
		<defs>
			<polygon id="SVGID_7_" points="555.929,470.765 423.66,547.127 423.66,769.439 555.929,693.072 555.929,470.765 			"/>
		</defs>
		<clipPath id="SVGID_8_">
			<use xlink:href="#SVGID_7_"  overflow="visible"/>
		</clipPath>
		<g transform="matrix(1 0 0 1 0 -6.103516e-05)" clip-path="url(#SVGID_8_)">
			
				<image overflow="visible" width="116" height="252" xlink:href="4C41E960AD15140A.jpg"  transform="matrix(1.2045 0 0 -1.2045 420.9701 772.3994)">
			</image>
		</g>
	</g>
	<polygon fill-rule="evenodd" clip-rule="evenodd" fill="#964DFF" points="573.294,480.788 441.026,557.155 441.026,779.463 
		573.294,703.101 573.294,480.788 	"/>
	<polygon fill-rule="evenodd" clip-rule="evenodd" fill="#964DFF" points="581.764,485.68 449.495,562.047 449.495,784.354 
		581.764,707.989 581.764,485.68 	"/>
	<polygon fill-rule="evenodd" clip-rule="evenodd" fill="#F1F1F1" points="594.404,512.284 573.294,500.094 459.511,565.786 
		480.621,577.976 594.404,512.284 	"/>
	<g>
		<defs>
			<polygon id="SVGID_9_" points="484.453,582.23 441.026,557.155 441.026,779.463 484.453,804.537 484.453,582.23 			"/>
		</defs>
		<clipPath id="SVGID_10_">
			<use xlink:href="#SVGID_9_"  overflow="visible"/>
		</clipPath>
		<g clip-path="url(#SVGID_10_)">
			
				<image overflow="visible" width="44" height="209" xlink:href="4C41E960AD15140B.jpg"  transform="matrix(1.2045 0 0 -1.2045 438.2198 807.6003)">
			</image>
		</g>
	</g>
	<polygon fill-rule="evenodd" clip-rule="evenodd" fill="#EBC1FF" points="573.174,480.719 440.906,557.086 449.495,562.047 
		449.615,561.974 475.987,577.2 475.867,577.27 484.453,582.23 484.576,582.157 484.871,582.328 493.462,577.371 493.163,577.2 
		616.722,505.863 608.132,500.904 484.576,572.241 458.205,557.015 581.764,485.68 573.174,480.719 	"/>
	<g>
		<defs>
			<polygon id="SVGID_11_" points="616.722,505.863 484.453,582.23 484.453,804.539 616.722,728.173 616.722,505.863 			"/>
		</defs>
		<clipPath id="SVGID_12_">
			<use xlink:href="#SVGID_11_"  overflow="visible"/>
		</clipPath>
		<g clip-path="url(#SVGID_12_)">
			
				<image overflow="visible" width="116" height="252" xlink:href="4C41E960AD151406.jpg"  transform="matrix(1.2045 0 0 -1.2045 481.4904 807.5147)">
			</image>
		</g>
	</g>
	<path opacity="0.3" fill-rule="evenodd" clip-rule="evenodd" fill="#73BAFF" d="M1162.475,1228.648
		c-8.268,4.771-20.797,5.292-27.957,1.157L557.916,896.902c-7.162-4.135-6.261-11.367,2.005-16.14l391.161-225.837
		c8.268-4.774,20.795-5.293,27.954-1.156l576.603,332.9c7.161,4.133,6.261,11.366-2.007,16.139L1162.475,1228.648L1162.475,1228.648
		z"/>
	<g>
		<defs>
			<path id="SVGID_13_" d="M1055.534,53.47c3.232-1.868,7.364-1.797,11.619,0.656l566.89,326.96
				c8.471,4.886,14.235,17.378,12.868,27.873l-64.736,496.655c-0.684,5.224-3.002,8.978-6.207,10.829l0,0h-0.002
				c-0.279,0.159-0.569,0.309-0.863,0.441l-17.441,8.938l0.47-13.626L997.456,588.822c-8.469-4.886-14.233-17.375-12.865-27.871
				l63.799-489.459l-10.358-9.058l17.502-8.969l0,0V53.47z"/>
		</defs>
		<clipPath id="SVGID_14_">
			<use xlink:href="#SVGID_13_"  overflow="visible"/>
		</clipPath>
		<g transform="matrix(1 0 0 1 0 -6.103516e-05)" clip-path="url(#SVGID_14_)">
			
				<image overflow="visible" width="560" height="730" xlink:href="4C41E960AD151407.jpg"  transform="matrix(1.2045 0 0 -1.2045 980.5565 929.329)">
			</image>
		</g>
	</g>
	<g>
		<defs>
			<path id="SVGID_15_" d="M1645.562,419.289l-63.388,486.325c-0.684,5.224-3.002,8.978-6.207,10.829h-0.002
				c-0.279,0.159-0.569,0.309-0.863,0.441l-15.669,8.03l-1.764,0.694l63.54-496.746l24.355-9.577V419.289z"/>
		</defs>
		<clipPath id="SVGID_16_">
			<use xlink:href="#SVGID_15_"  overflow="visible"/>
		</clipPath>
		<g transform="matrix(1 0 0 1 1.220703e-04 -6.103516e-05)" clip-path="url(#SVGID_16_)">
			
				<image overflow="visible" width="80" height="424" xlink:href="4C41E960AD151418.jpg"  transform="matrix(1.2045 0 0 -1.2045 1554.4088 928.5087)">
			</image>
		</g>
	</g>
	<path fill-rule="evenodd" clip-rule="evenodd" fill="#D7EBFF" d="M1628.604,418.344c1.368-10.496-4.397-22.987-12.868-27.872
		l-566.89-326.959c-8.47-4.887-16.456-0.329-17.826,10.17l-64.736,496.652c-1.368,10.499,4.396,22.987,12.865,27.873l566.889,326.96
		c8.472,4.885,16.456,0.329,17.829-10.169L1628.604,418.344L1628.604,418.344z"/>
	<g>
		<defs>
			<path id="SVGID_17_" d="M1622.761,419.846c1.355-10.406-4.359-22.786-12.755-27.627L1048.101,68.13
				c-8.395-4.838-16.313-0.324-17.668,10.082l-64.17,492.289c-1.355,10.406,4.36,22.786,12.755,27.628l561.905,324.087
				c8.395,4.841,16.313,0.325,17.668-10.079L1622.761,419.846L1622.761,419.846z"/>
		</defs>
		<clipPath id="SVGID_18_">
			<use xlink:href="#SVGID_17_"  overflow="visible"/>
		</clipPath>
		<g transform="matrix(1 0 0 1 0 -6.103516e-05)" clip-path="url(#SVGID_18_)">
			
				<image overflow="visible" width="552" height="721" xlink:href="4C41E960AD15141B.jpg"  transform="matrix(1.2045 0 0 -1.2045 962.2844 930.2779)">
			</image>
		</g>
	</g>
	<g>
		<defs>
			<path id="SVGID_19_" d="M552.932,850.875c-0.211,3.044,1.512,5.98,5.257,8.138l574.248,331.545
				c7.813,4.509,21.48,3.943,30.503-1.265l381.548-220.288c5.112-2.951,7.641-6.763,7.453-10.335l0,0v-21.313l-14.462,8.35v0.377
				L972.431,619.853c-7.812-4.509-21.482-3.946-30.501,1.263L566.912,837.631l-13.998-8.079v21.313L552.932,850.875L552.932,850.875
				z"/>
		</defs>
		<clipPath id="SVGID_20_">
			<use xlink:href="#SVGID_19_"  overflow="visible"/>
		</clipPath>
		<g clip-path="url(#SVGID_20_)">
			
				<image overflow="visible" width="836" height="485" xlink:href="586BAF9040BE577.jpg"  transform="matrix(1.2045 0 0 -1.2045 549.7191 1197.6991)">
			</image>
		</g>
	</g>
	<g>
		<defs>
			<path id="SVGID_21_" d="M1551.941,937.357l-384.068,222.247l1.366,26.05l375.249-216.649c5.112-2.951,7.641-6.763,7.453-10.335
				V937.357L1551.941,937.357z"/>
		</defs>
		<clipPath id="SVGID_22_">
			<use xlink:href="#SVGID_21_"  overflow="visible"/>
		</clipPath>
		<g clip-path="url(#SVGID_22_)">
			
				<image overflow="visible" width="324" height="210" xlink:href="586BAF9040BE575.jpg"  transform="matrix(1.2045 0 0 -1.2045 1164.9773 1188.6342)">
			</image>
		</g>
	</g>
	<path fill-rule="evenodd" clip-rule="evenodd" fill="#D7EBFF" d="M1162.166,1168.374c-8.099,4.677-20.367,5.186-27.381,1.135
		L557.649,836.3c-7.014-4.049-6.132-11.133,1.965-15.809l383.148-221.21c8.099-4.676,20.367-5.183,27.383-1.137l577.134,333.211
		c7.014,4.049,6.134,11.134-1.965,15.807L1162.166,1168.374L1162.166,1168.374z"/>
	<g>
		<defs>
			<path id="SVGID_23_" d="M1160.556,1163.832c-8.034,4.639-20.209,5.143-27.168,1.124L560.796,834.369
				c-6.959-4.02-6.087-11.045,1.948-15.684l380.136-219.47c8.033-4.639,20.205-5.143,27.163-1.128l572.597,330.59
				c6.957,4.016,6.085,11.042-1.95,15.684L1160.556,1163.832L1160.556,1163.832z"/>
		</defs>
		<clipPath id="SVGID_24_">
			<use xlink:href="#SVGID_23_"  overflow="visible"/>
		</clipPath>
		<g clip-path="url(#SVGID_24_)">
			
				<image overflow="visible" width="832" height="481" xlink:href="586BAF9040BE573.jpg"  transform="matrix(1.2045 0 0 -1.2045 550.5565 1172.1337)">
			</image>
		</g>
	</g>
	<g>
		<defs>
			<path id="SVGID_25_" d="M1222.881,1045.977c-4.644,2.681-11.682,2.973-15.709,0.653L755.789,786.02
				c-4.024-2.323-3.52-6.389,1.128-9.072l219.808-126.904c4.645-2.682,11.684-2.975,15.708-0.651L1443.818,910
				c4.025,2.321,3.52,6.387-1.128,9.07L1222.881,1045.977L1222.881,1045.977z"/>
		</defs>
		<clipPath id="SVGID_26_">
			<use xlink:href="#SVGID_25_"  overflow="visible"/>
		</clipPath>
		<g clip-path="url(#SVGID_26_)">
			
				<image overflow="visible" width="584" height="338" xlink:href="586BAF9040BE58D.jpg"  transform="matrix(1.2045 0 0 -1.2045 749.0145 1052.3224)">
			</image>
		</g>
	</g>
	<polygon fill-rule="evenodd" clip-rule="evenodd" fill="#75BCFF" points="1288.31,843.052 1262.531,857.934 1290.139,873.874 
		1315.917,858.988 1288.31,843.052 	"/>
	<polygon fill-rule="evenodd" clip-rule="evenodd" fill="#75BCFF" points="1203.859,891.808 1178.083,906.69 1205.687,922.632 
		1231.468,907.749 1203.859,891.808 	"/>
	<polygon fill-rule="evenodd" clip-rule="evenodd" fill="#75BCFF" points="1246.292,867.311 1220.513,882.193 1248.117,898.135 
		1273.896,883.25 1246.292,867.311 	"/>
	<polygon fill-rule="evenodd" clip-rule="evenodd" fill="#75BCFF" points="1161.843,916.068 1136.062,930.951 1163.668,946.891 
		1189.449,932.008 1161.843,916.068 	"/>
	<polygon fill-rule="evenodd" clip-rule="evenodd" fill="#75BCFF" points="1117.937,941.418 1092.159,956.301 1119.763,972.237 
		1145.543,957.354 1117.937,941.418 	"/>
	<polygon fill-rule="evenodd" clip-rule="evenodd" fill="#75BCFF" points="1115.393,743.217 1089.614,758.103 1117.221,774.039 
		1142.999,759.157 1115.393,743.217 	"/>
	<polygon fill-rule="evenodd" clip-rule="evenodd" fill="#75BCFF" points="1030.944,791.975 1005.166,806.858 1032.77,822.797 
		1058.55,807.915 1030.944,791.975 	"/>
	<polygon fill-rule="evenodd" clip-rule="evenodd" fill="#75BCFF" points="1073.375,767.479 1047.596,782.364 1075.2,798.3 
		1100.981,783.418 1073.375,767.479 	"/>
	<polygon fill-rule="evenodd" clip-rule="evenodd" fill="#75BCFF" points="988.925,816.234 963.146,831.12 990.752,847.056 
		1016.532,832.173 988.925,816.234 	"/>
	<polygon fill-rule="evenodd" clip-rule="evenodd" fill="#75BCFF" points="945.02,841.584 919.242,856.466 1072.916,945.192 
		1098.694,930.307 945.02,841.584 	"/>
	<polygon fill-rule="evenodd" clip-rule="evenodd" fill="#75BCFF" points="1028.353,692.964 1002.573,707.85 1030.176,723.787 
		1055.957,708.904 1028.353,692.964 	"/>
	<polygon fill-rule="evenodd" clip-rule="evenodd" fill="#75BCFF" points="943.902,741.722 918.124,756.605 945.73,772.542 
		971.509,757.66 943.902,741.722 	"/>
	<polygon fill-rule="evenodd" clip-rule="evenodd" fill="#75BCFF" points="986.333,717.226 960.555,732.109 988.158,748.045 
		1013.939,733.163 986.333,717.226 	"/>
	<polygon fill-rule="evenodd" clip-rule="evenodd" fill="#75BCFF" points="901.885,765.979 876.106,780.865 903.71,796.805 
		929.489,781.919 901.885,765.979 	"/>
	<polygon fill-rule="evenodd" clip-rule="evenodd" fill="#75BCFF" points="857.981,791.329 832.2,806.212 859.806,822.153 
		885.585,807.27 857.981,791.329 	"/>
	<polygon fill-rule="evenodd" clip-rule="evenodd" fill="#75BCFF" points="1374.037,892.545 1348.256,907.428 1375.865,923.367 
		1401.643,908.483 1374.037,892.545 	"/>
	<polygon fill-rule="evenodd" clip-rule="evenodd" fill="#75BCFF" points="1289.587,941.301 1263.808,956.186 1291.412,972.125 
		1317.191,957.241 1289.587,941.301 	"/>
	<polygon fill-rule="evenodd" clip-rule="evenodd" fill="#75BCFF" points="1332.017,916.804 1306.239,931.69 1333.845,947.628 
		1359.621,932.745 1332.017,916.804 	"/>
	<polygon fill-rule="evenodd" clip-rule="evenodd" fill="#75BCFF" points="1247.566,965.562 1221.788,980.448 1249.394,996.383 
		1275.173,981.501 1247.566,965.562 	"/>
	<polygon fill-rule="evenodd" clip-rule="evenodd" fill="#75BCFF" points="1203.665,990.911 1177.884,1005.794 1205.488,1021.732 
		1231.269,1006.848 1203.665,990.911 	"/>
	<polygon fill-rule="evenodd" clip-rule="evenodd" fill="#75BCFF" points="1201.119,792.711 1175.341,807.596 1202.948,823.533 
		1228.725,808.65 1201.119,792.711 	"/>
	<polygon fill-rule="evenodd" clip-rule="evenodd" fill="#75BCFF" points="1116.672,841.469 1090.891,856.351 1118.495,872.291 
		1144.276,857.408 1116.672,841.469 	"/>
	<polygon fill-rule="evenodd" clip-rule="evenodd" fill="#75BCFF" points="1159.1,816.971 1133.322,831.857 1160.928,847.794 
		1186.704,832.911 1159.1,816.971 	"/>
	<polygon fill-rule="evenodd" clip-rule="evenodd" fill="#75BCFF" points="1074.652,865.73 1048.871,880.613 1076.477,896.55 
		1102.258,881.667 1074.652,865.73 	"/>
	<polygon fill-rule="evenodd" clip-rule="evenodd" fill="#75BCFF" points="985.362,668.144 959.583,683.03 987.187,698.966 
		1012.968,684.084 985.362,668.144 	"/>
	<polygon fill-rule="evenodd" clip-rule="evenodd" fill="#75BCFF" points="900.913,716.903 875.135,731.783 902.739,747.722 
		928.52,732.839 900.913,716.903 	"/>
	<polygon fill-rule="evenodd" clip-rule="evenodd" fill="#75BCFF" points="943.344,692.404 917.565,707.287 945.169,723.228 
		970.95,708.34 943.344,692.404 	"/>
	<polygon fill-rule="evenodd" clip-rule="evenodd" fill="#75BCFF" points="858.892,741.164 833.117,756.045 860.721,771.983 
		886.5,757.1 858.892,741.164 	"/>
	<polygon fill-rule="evenodd" clip-rule="evenodd" fill="#75BCFF" points="814.992,766.512 789.211,781.393 816.817,797.333 
		842.596,782.448 814.992,766.512 	"/>
	<polygon fill-rule="evenodd" clip-rule="evenodd" fill="#75BCFF" points="1331.047,867.725 1305.266,882.608 1332.872,898.549 
		1358.653,883.664 1331.047,867.725 	"/>
	<polygon fill-rule="evenodd" clip-rule="evenodd" fill="#75BCFF" points="1246.595,916.483 1220.819,931.365 1248.423,947.305 
		1274.202,932.419 1246.595,916.483 	"/>
	<polygon fill-rule="evenodd" clip-rule="evenodd" fill="#75BCFF" points="1289.029,891.987 1263.248,906.869 1290.852,922.808 
		1316.633,907.923 1289.029,891.987 	"/>
	<polygon fill-rule="evenodd" clip-rule="evenodd" fill="#75BCFF" points="1204.577,940.742 1178.799,955.624 1206.405,971.564 
		1232.184,956.681 1204.577,940.742 	"/>
	<polygon fill-rule="evenodd" clip-rule="evenodd" fill="#75BCFF" points="1160.671,966.091 1134.895,980.974 1162.499,996.91 
		1188.278,982.028 1160.671,966.091 	"/>
	<polygon fill-rule="evenodd" clip-rule="evenodd" fill="#75BCFF" points="1158.13,767.89 1132.351,782.776 1159.958,798.715 
		1185.736,783.83 1158.13,767.89 	"/>
	<polygon fill-rule="evenodd" clip-rule="evenodd" fill="#75BCFF" points="1073.678,816.648 1047.902,831.534 1075.506,847.47 
		1101.285,832.588 1073.678,816.648 	"/>
	<polygon fill-rule="evenodd" clip-rule="evenodd" fill="#75BCFF" points="1116.112,792.152 1090.333,807.035 1117.937,822.973 
		1143.715,808.089 1116.112,792.152 	"/>
	<polygon fill-rule="evenodd" clip-rule="evenodd" fill="#75BCFF" points="1031.662,840.907 1005.881,855.793 1033.488,871.729 
		1059.269,856.847 1031.662,840.907 	"/>
	<polygon fill-rule="evenodd" clip-rule="evenodd" fill="#75BCFF" points="1071.09,717.638 1045.309,732.523 1072.916,748.46 
		1098.694,733.577 1071.09,717.638 	"/>
	<polygon fill-rule="evenodd" clip-rule="evenodd" fill="#75BCFF" points="986.639,766.395 960.858,781.278 988.467,797.216 
		1014.245,782.332 986.639,766.395 	"/>
	<polygon fill-rule="evenodd" clip-rule="evenodd" fill="#75BCFF" points="1029.07,741.899 1003.289,756.779 1030.895,772.721 
		1056.676,757.836 1029.07,741.899 	"/>
	<polygon fill-rule="evenodd" clip-rule="evenodd" fill="#75BCFF" points="944.62,790.657 918.84,805.54 946.449,821.477 
		972.224,806.594 944.62,790.657 	"/>
	<polygon fill-rule="evenodd" clip-rule="evenodd" fill="#75BCFF" points="900.715,816.004 874.934,830.887 902.543,846.826 
		928.321,831.943 900.715,816.004 	"/>
	<polygon fill-rule="evenodd" clip-rule="evenodd" fill="#75BCFF" points="1243.855,817.384 1218.074,832.27 1245.682,848.208 
		1271.462,833.325 1243.855,817.384 	"/>
	<polygon fill-rule="evenodd" clip-rule="evenodd" fill="#75BCFF" points="1159.406,866.144 1133.628,881.026 1161.232,896.964 
		1187.01,882.081 1159.406,866.144 	"/>
	<polygon fill-rule="evenodd" clip-rule="evenodd" fill="#75BCFF" points="1201.837,841.646 1176.059,856.53 1203.665,872.467 
		1229.441,857.584 1201.837,841.646 	"/>
	<polygon fill-rule="evenodd" clip-rule="evenodd" fill="#75BCFF" points="1117.386,890.404 1091.608,905.285 1119.214,921.223 
		1144.995,906.34 1117.386,890.404 	"/>
	<path fill-rule="evenodd" clip-rule="evenodd" fill="#5BAFFF" d="M741.089,827.551c43.206,0,78.278,17.177,78.278,38.334
		c0,21.153-35.072,38.333-78.278,38.333c-43.2,0-78.276-17.18-78.276-38.333C662.814,844.729,697.89,827.551,741.089,827.551
		L741.089,827.551z"/>
	<path fill-rule="evenodd" clip-rule="evenodd" fill="#5BAFFF" d="M1141.355,1008.627c-0.563,20.919-35.419,37.819-78.271,37.819
		c-43.202,0-78.278-17.176-78.278-38.333c0-21.157,35.076-38.333,78.278-38.333c3.983,0,7.898,0.147,11.727,0.428L1141.355,1008.627
		L1141.355,1008.627z"/>
	<path fill-rule="evenodd" clip-rule="evenodd" fill="#000E7B" d="M1584.9,710.326l20.262-155.474l-209.478-129.064
		c-25.105-15.427-48.724-2.575-52.712,28.685l-5.418,42.475c-3.985,31.256,13.159,69.162,38.264,84.591l12.334,7.578l-16.833,24.787
		l55.823-0.824L1584.9,710.326L1584.9,710.326z"/>
	<g>
		<defs>
			<polygon id="SVGID_27_" points="1575.871,504.317 1606.084,487.672 1609.252,524.929 1579.04,541.569 1575.871,504.317 			"/>
		</defs>
		<clipPath id="SVGID_28_">
			<use xlink:href="#SVGID_27_"  overflow="visible"/>
		</clipPath>
		<g clip-path="url(#SVGID_28_)">
			
				<image overflow="visible" width="36" height="48" xlink:href="586BAF9040BE58F.jpg"  transform="matrix(1.2045 0 0 -1.2045 1572.5878 544.0982)">
			</image>
		</g>
	</g>
	<g>
		<defs>
			<path id="SVGID_29_" d="M1692.14,514.762c9.479-5.159,16.335-16.116,18.316-31.645l5.381-42.198
				c3.963-31.057-13.071-68.718-38.017-84.045l-298.95-184.19c-12.339-7.58-24.315-8.289-33.75-3.306v-0.003l-36.485,19.855
				l-6.6,51.723l20.841-11.34l-1.757,13.77c-3.961,31.054,13.073,68.714,38.015,84.042l100.445,61.726l-16.727,24.625l55.464-0.819
				l159.774,98.656c0.153,0.095,0.31,0.191,0.464,0.282l-2.899,22.72L1692.14,514.762L1692.14,514.762z"/>
		</defs>
		<clipPath id="SVGID_30_">
			<use xlink:href="#SVGID_29_"  overflow="visible"/>
		</clipPath>
		<g clip-path="url(#SVGID_30_)">
			
				<image overflow="visible" width="352" height="311" xlink:href="586BAF9040BE592.jpg"  transform="matrix(1.2045 0 0 -1.2045 1298.86 537.7366)">
			</image>
		</g>
	</g>
	<g>
		<defs>
			<path id="SVGID_31_" d="M1665.704,433.518l-9.79,76.756l2.173,1.341c0.153,0.095,0.307,0.191,0.464,0.284l-2.899,22.718
				l36.488-19.855c8.143-4.431,14.35-13.143,17.196-25.362l7.031-55.125c0.292-8.695-0.912-17.726-3.343-26.506l-47.318,25.749
				H1665.704z"/>
		</defs>
		<clipPath id="SVGID_32_">
			<use xlink:href="#SVGID_31_"  overflow="visible"/>
		</clipPath>
		<g clip-path="url(#SVGID_32_)">
			
				<image overflow="visible" width="56" height="109" xlink:href="586BAF9040BE593.jpg"  transform="matrix(1.2045 0 0 -1.2045 1652.5737 537.1721)">
			</image>
		</g>
	</g>
	<g>
		<defs>
			<path id="SVGID_33_" d="M1679.351,460.771c3.963-31.054-13.071-68.716-38.015-84.042l-298.955-184.189
				c-24.941-15.326-48.408-2.559-52.369,28.498l-5.381,42.203c-3.963,31.054,13.072,68.711,38.017,84.042l214.487,133.226
				l42.232,61.546l-3.497-37.738l45.731,27.153c24.94,15.329,48.407,2.56,52.367-28.499L1679.351,460.771L1679.351,460.771z"/>
		</defs>
		<clipPath id="SVGID_34_">
			<use xlink:href="#SVGID_33_"  overflow="visible"/>
		</clipPath>
		<g clip-path="url(#SVGID_34_)">
			
				<image overflow="visible" width="340" height="311" xlink:href="586BAF9040BE595.jpg"  transform="matrix(1.2045 0 0 -1.2045 1277.7964 550.2591)">
			</image>
		</g>
	</g>
	<path fill-rule="evenodd" clip-rule="evenodd" fill="#0085DE" d="M1533.749,369.583c0.576-4.504-1.896-9.972-5.517-12.197
		l-167.021-102.903c-3.617-2.222-7.024-0.37-7.597,4.135l-0.781,6.127c-0.577,4.507,1.897,9.975,5.516,12.194l167.018,102.904
		c3.623,2.226,7.029,0.371,7.603-4.136L1533.749,369.583L1533.749,369.583z"/>
	<path fill-rule="evenodd" clip-rule="evenodd" fill="#0085DE" d="M1629.298,467.717c0.575-4.507-1.898-9.97-5.517-12.194
		l-267.727-164.95c-3.623-2.228-7.026-0.37-7.602,4.135l-0.78,6.124c-0.575,4.507,1.898,9.971,5.519,12.199l267.725,164.95
		c3.62,2.22,7.024,0.37,7.599-4.137L1629.298,467.717L1629.298,467.717z"/>
	<g>
		<defs>
			<path id="SVGID_35_" d="M1660.337,800.555c9.54-5.191,16.447-16.219,18.438-31.846l5.415-42.475
				c3.988-31.26-13.157-69.164-38.263-84.591l-300.901-185.392c-12.42-7.631-24.474-8.341-33.973-3.328l0.002-0.005l-36.723,19.987
				l-6.641,52.056l20.975-11.409l-1.77,13.858c-3.984,31.257,13.16,69.164,38.265,84.591l101.099,62.129l-16.836,24.783l55.82-0.823
				l160.816,99.3c0.158,0.096,0.312,0.191,0.469,0.284l-2.916,22.867L1660.337,800.555L1660.337,800.555z"/>
		</defs>
		<clipPath id="SVGID_36_">
			<use xlink:href="#SVGID_35_"  overflow="visible"/>
		</clipPath>
		<g transform="matrix(1 0 0 1 1.220703e-04 0)" clip-path="url(#SVGID_36_)">
			
				<image overflow="visible" width="356" height="313" xlink:href="586BAF9040BE597.jpg"  transform="matrix(1.2045 0 0 -1.2045 1264.8455 823.109)">
			</image>
		</g>
	</g>
	<g>
		<defs>
			<path id="SVGID_37_" d="M1633.734,718.784l-9.857,77.257l2.186,1.35c0.158,0.096,0.312,0.191,0.469,0.284l-2.916,22.867
				l36.723-19.987c8.197-4.458,14.446-13.229,17.311-25.526l7.076-55.484c0.294-8.749-0.917-17.839-3.365-26.678L1633.734,718.784
				L1633.734,718.784z"/>
		</defs>
		<clipPath id="SVGID_38_">
			<use xlink:href="#SVGID_37_"  overflow="visible"/>
		</clipPath>
		<g clip-path="url(#SVGID_38_)">
			
				<image overflow="visible" width="56" height="110" xlink:href="586BAF9040BE590.jpg"  transform="matrix(1.2045 0 0 -1.2045 1620.3577 822.9561)">
			</image>
		</g>
	</g>
	<g>
		<defs>
			<path id="SVGID_39_" d="M1647.468,746.217c3.985-31.26-13.159-69.164-38.264-84.591l-300.902-185.391
				c-25.104-15.428-48.723-2.574-52.71,28.684l-5.417,42.475c-3.986,31.261,13.158,69.164,38.263,84.591l12.334,7.58l-16.837,24.787
				l55.826-0.824l249.578,153.847c25.105,15.429,48.724,2.577,52.712-28.682L1647.468,746.217L1647.468,746.217z"/>
		</defs>
		<clipPath id="SVGID_40_">
			<use xlink:href="#SVGID_39_"  overflow="visible"/>
		</clipPath>
		<g transform="matrix(1 0 0 1 1.220703e-04 0)" clip-path="url(#SVGID_40_)">
			
				<image overflow="visible" width="344" height="313" xlink:href="586BAF9040BE5B6.jpg"  transform="matrix(1.2045 0 0 -1.2045 1243.684 835.6732)">
			</image>
		</g>
	</g>
	<path fill-rule="evenodd" clip-rule="evenodd" fill="#0085DE" d="M1504.234,669.169c0.578-4.534-1.909-10.036-5.554-12.278
		L1330.572,553.32c-3.641-2.238-7.071-0.375-7.648,4.164l-0.784,6.161c-0.582,4.539,1.909,10.037,5.55,12.278l168.109,103.574
		c3.642,2.239,7.071,0.372,7.649-4.161L1504.234,669.169L1504.234,669.169z"/>
	<path fill-rule="evenodd" clip-rule="evenodd" fill="#0085DE" d="M1601.247,768.43c0.582-4.536-1.909-10.038-5.552-12.278
		l-269.471-166.024c-3.644-2.237-7.072-0.375-7.651,4.164l-0.786,6.166c-0.582,4.534,1.909,10.032,5.552,12.275l269.471,166.024
		c3.644,2.239,7.072,0.372,7.651-4.164L1601.247,768.43L1601.247,768.43z"/>
	<g>
		<defs>
			<path id="SVGID_41_" d="M999.029,632.052c9.2-3.779,35.306,11.016,62.993,17.752c0,0,56.034-14.778,65.254-14.297
				c2.034,2.337,3.8,7.587,1.671,11.101c-12.341,5.461-37.554,17.203-63.839,25.982c-23.092-0.093-41.908-6.722-49.596-10.788
				c-9.818-5.185-16.672-7.967-21.477-17.726c-0.915-1.855-0.853-4.062-0.956-6.129C993.035,637.14,994.704,633.826,999.029,632.052
				L999.029,632.052z"/>
		</defs>
		<clipPath id="SVGID_42_">
			<use xlink:href="#SVGID_41_"  overflow="visible"/>
		</clipPath>
		<g clip-path="url(#SVGID_42_)">
			
				<image overflow="visible" width="120" height="41" xlink:href="586BAF9040BE5B5.jpg"  transform="matrix(1.2045 0 0 -1.2045 989.5676 676.1505)">
			</image>
		</g>
	</g>
	<g>
		<defs>
			<path id="SVGID_43_" d="M1164.459,599.081l-68.662,36.995l102.422,188.947h0.017l0.135,0.279
				c5.948,11.037,26.142,11.712,45.102,1.492c18.963-10.217,29.508-27.452,23.561-38.49l-0.163-0.269l0.017-0.01L1164.459,599.081
				L1164.459,599.081z"/>
		</defs>
		<clipPath id="SVGID_44_">
			<use xlink:href="#SVGID_43_"  overflow="visible"/>
		</clipPath>
		<g clip-path="url(#SVGID_44_)">
			
				<image overflow="visible" width="152" height="202" xlink:href="586BAF9040BE5B2.jpg"  transform="matrix(1.2045 0 0 -1.2045 1092.9312 840.1971)">
			</image>
		</g>
	</g>
	<g>
		<defs>
			<path id="SVGID_45_" d="M1043.994,965.54c0,0,9.11,2.097,6.761,7.67c-2.336,5.592-16.434,18.115-17.892,21.656
				c-1.485,3.512-9.824,16.29-12.75,15.123c-2.951-1.184-21.776,2.938-13.307-25.343
				C1010.932,970.862,1031.096,964.939,1043.994,965.54L1043.994,965.54z"/>
		</defs>
		<clipPath id="SVGID_46_">
			<use xlink:href="#SVGID_45_"  overflow="visible"/>
		</clipPath>
		<g transform="matrix(1 0 0 1 6.103516e-05 0)" clip-path="url(#SVGID_46_)">
			
				<image overflow="visible" width="52" height="44" xlink:href="586BAF9040BE5BD.jpg"  transform="matrix(1.2045 0 0 -1.2045 994.7624 1015.9888)">
			</image>
		</g>
	</g>
	<g>
		<defs>
			<path id="SVGID_47_" d="M1053.654,1025.722c0,0,6.523,10.452,18.155,6.921c11.632-3.54,6.085-8.502,31.079-16.642
				c25.04-8.161,18.299-23.955,16.209-26.151c-2.047-2.152-19.243,2.452-24.743,4.197c-5.481,1.734-15.821,5.132-15.821,5.132
				l-24.879,8.488V1025.722L1053.654,1025.722z"/>
		</defs>
		<clipPath id="SVGID_48_">
			<use xlink:href="#SVGID_47_"  overflow="visible"/>
		</clipPath>
		<g clip-path="url(#SVGID_48_)">
			
				<image overflow="visible" width="68" height="44" xlink:href="586BAF9040BE5BE.jpg"  transform="matrix(1.2045 0 0 -1.2045 1050.2825 1038.7922)">
			</image>
		</g>
	</g>
	<g>
		<defs>
			<path id="SVGID_49_" d="M1007.258,773.4c0,0,2.862,98.619,2.862,107.998c0,9.376-9.616,71.009-3.315,103.25
				c0,0,14.279,15.096,30.32-3.122c0,0,1.784-32.111,4.201-62.756c1.683-21.36,3.673-42.008,5.582-50.576
				c4.641-20.868,3.09-84.721,3.09-84.721L1007.258,773.4L1007.258,773.4z"/>
		</defs>
		<clipPath id="SVGID_50_">
			<use xlink:href="#SVGID_49_"  overflow="visible"/>
		</clipPath>
		<g clip-path="url(#SVGID_50_)">
			
				<image overflow="visible" width="48" height="192" xlink:href="586BAF9040BE5BC.jpg"  transform="matrix(1.2045 0 0 -1.2045 997.331 1002.5102)">
			</image>
		</g>
	</g>
	<g>
		<defs>
			<path id="SVGID_51_" d="M1039.109,785.232c0,0,16.255,81.011,15.422,134.589c0,0-4.329,78.254-1.845,93.509
				c0,0,34.126,8.473,37.557-7.597c0,0-0.885-93.12,0-112.58c0.83-19.46,2.845-73.73-4.865-105.048
				C1077.698,756.792,1039.109,785.232,1039.109,785.232L1039.109,785.232z"/>
		</defs>
		<clipPath id="SVGID_52_">
			<use xlink:href="#SVGID_51_"  overflow="visible"/>
		</clipPath>
		<g clip-path="url(#SVGID_52_)">
			
				<image overflow="visible" width="52" height="224" xlink:href="586BAF9040BE5B3.jpg"  transform="matrix(1.2045 0 0 -1.2045 1036.2369 1024.4038)">
			</image>
		</g>
	</g>
	<g>
		<defs>
			<path id="SVGID_53_" d="M1052.686,1013.33c-5.281-45.342,1.845-93.509,1.845-93.509c2.882-88.312-35.901-73.939-34.375-125.426
				l41.239,11.363c0,0,15.175,39.887,12.858,99.704c-1.799,46.296-2.536,91.824-2.788,110.093
				C1062.042,1015.631,1052.686,1013.33,1052.686,1013.33L1052.686,1013.33z"/>
		</defs>
		<clipPath id="SVGID_54_">
			<use xlink:href="#SVGID_53_"  overflow="visible"/>
		</clipPath>
		<g transform="matrix(1 0 0 1 0 6.103516e-05)" clip-path="url(#SVGID_54_)">
			
				<image overflow="visible" width="56" height="187" xlink:href="586BAF9040BE5B4.jpg"  transform="matrix(1.2045 0 0 -1.2045 1015.7769 1018.1229)">
			</image>
		</g>
	</g>
	<g>
		<defs>
			<path id="SVGID_55_" d="M1006.805,984.647c-5.891-44.778,3.315-92.815,3.315-102.192c0-8.939-12.581-63.072-2.862-108.448
				l18.316,14.097c0,0,5.813,59.509,0,93.408c-5.293,30.846-1.892,90.891-4.468,108.13
				C1010.976,989.642,1006.805,984.647,1006.805,984.647L1006.805,984.647z"/>
		</defs>
		<clipPath id="SVGID_56_">
			<use xlink:href="#SVGID_55_"  overflow="visible"/>
		</clipPath>
		<g clip-path="url(#SVGID_56_)">
			
				<image overflow="visible" width="36" height="183" xlink:href="586BAF9040BE5B7.jpg"  transform="matrix(1.2045 0 0 -1.2045 994.9314 992.8158)">
			</image>
		</g>
	</g>
	<g>
		<defs>
			<path id="SVGID_57_" d="M998.354,632.101c0,0-15.651,8.212-6.151,34.916c9.496,26.725,12.5,97.862,10.522,104.748
				c0,0-2.217,22.183,48.66,34.375c0,0,39.044,3.483,36.194-24.619c-6.029-59.543-12.775-70.784-11.937-81.346
				c0.858-10.575,6.769-31.77-19.88-45.479C1029.109,640.979,1015.197,630.731,998.354,632.101L998.354,632.101z"/>
		</defs>
		<clipPath id="SVGID_58_">
			<use xlink:href="#SVGID_57_"  overflow="visible"/>
		</clipPath>
		<g clip-path="url(#SVGID_58_)">
			
				<image overflow="visible" width="96" height="152" xlink:href="586BAF9040BE58B.jpg"  transform="matrix(1.2045 0 0 -1.2045 979.9247 812.3948)">
			</image>
		</g>
	</g>
	<g>
		<defs>
			<path id="SVGID_59_" d="M1075.641,700.174c-0.225,2.853,1.786,7.357,3.281,13.969c5.321,23.561,7.083,44.18,8.805,70.226
				c0.969,14.648-15.363,20.958-27.195,21.722c-4.026-12.158,14.259-61.513,0.567-86.639c-5.742-10.536-21.166-50.255,4.009-31.07
				C1082.792,701.856,1076.387,690.789,1075.641,700.174L1075.641,700.174z"/>
		</defs>
		<clipPath id="SVGID_60_">
			<use xlink:href="#SVGID_59_"  overflow="visible"/>
		</clipPath>
		<g clip-path="url(#SVGID_60_)">
			
				<image overflow="visible" width="48" height="118" xlink:href="586BAF9040BE5D9.jpg"  transform="matrix(1.2045 0 0 -1.2045 1036.5148 809.432)">
			</image>
		</g>
	</g>
	<path fill="#EFB185" d="M1016.814,618.441c0,0,1.955,14.025-2.689,22.906c-4.22,8.067,29.02,14.688,29.662,7.275
		c0.052-0.784-6.526-12.757,1.177-27.256C1048.996,613.79,1016.814,618.441,1016.814,618.441L1016.814,618.441z"/>
	<path fill="#DD9569" d="M1014.287,641.835c3.45-6.626,3.274-16.03,2.934-20.442l24.413,11.504l-0.005,0.071
		c-0.883,0.225-17.108,4.695-20.411,16.493C1016.198,647.516,1012.763,644.776,1014.287,641.835L1014.287,641.835z"/>
	<g>
		<defs>
			<path id="SVGID_61_" d="M1041.844,644.286l10.954,8.87c0,0-33.39,10.269-43.515-5.975c-1.446-2.308,0.088-10.14,5.901-11.703
				C1015.184,635.478,1016.591,648.833,1041.844,644.286L1041.844,644.286z"/>
		</defs>
		<clipPath id="SVGID_62_">
			<use xlink:href="#SVGID_61_"  overflow="visible"/>
		</clipPath>
		<g transform="matrix(1 0 0 1 0 6.103516e-05)" clip-path="url(#SVGID_62_)">
			
				<image overflow="visible" width="44" height="27" xlink:href="586BAF9040BE5D7.jpg"  transform="matrix(1.2045 0 0 -1.2045 1004.3821 666.0032)">
			</image>
		</g>
	</g>
	<path fill="#EFB185" d="M1060.594,667.051c8.046-0.637,25.436,17.621,46.524,36.818l34.068-41.597
		c0.738-3.259,2.151-10.057,2.068-13.807c-0.137-5.053,1.67-6.43,2.618-6.753c0.986-0.321,1.157,2.892,1.976,4.823
		c0.764,1.95-0.467,6.982,1.66,5.327c2.116-1.671,9.838-13.477,13.713-12.799c1.779,0.313,3.624-1.517,0.717,9.672
		c-2.061,7.99-8.651,15.724-12.248,19.5c-10.609,30.821-34.139,58.036-34.139,58.036v-0.032c-2.809,2.598-7.169,3.132-7.169,3.132
		c-20.57-4.191-40.446-24.12-54.698-44.885C1045.468,669.635,1060.594,667.051,1060.594,667.051L1060.594,667.051z"/>
	<g>
		<defs>
			<path id="SVGID_63_" d="M1055.48,662.969c17.446-11.438,31.704,20.291,52.792,39.492l32.914-40.189
				c0.738-3.259,16.165,4.372,12.564,8.149c-10.606,30.821-34.137,58.036-34.137,58.036v-0.032
				c-2.809,2.597-9.491,3.729-9.491,3.729c-20.576-4.196-39.299-25.311-56.468-43.742
				C1040.837,674.653,1055.48,662.969,1055.48,662.969L1055.48,662.969z"/>
		</defs>
		<clipPath id="SVGID_64_">
			<use xlink:href="#SVGID_63_"  overflow="visible"/>
		</clipPath>
		<g clip-path="url(#SVGID_64_)">
			
				<image overflow="visible" width="104" height="71" xlink:href="586BAF9040BE5E9.jpg"  transform="matrix(1.2045 0 0 -1.2045 1037.7343 735.0252)">
			</image>
		</g>
	</g>
	<path fill="#7A25DE" d="M1164.54,599.213c5.945,11.047-4.607,28.28-23.56,38.492c-18.961,10.217-39.154,9.555-45.1-1.492
		c-5.956-11.04,4.595-28.275,23.549-38.494C1138.39,587.511,1158.585,588.176,1164.54,599.213L1164.54,599.213z"/>
	<g>
		<defs>
			<path id="SVGID_65_" d="M1119.503,548.948l-40.84,22.01l29.038,53.892h0.007l0.054,0.108c3.562,6.624,15.578,7.025,26.852,0.945
				c11.28-6.079,17.558-16.325,14.013-22.894l-0.061-0.108l-0.027-0.056L1119.503,548.948L1119.503,548.948z"/>
		</defs>
		<clipPath id="SVGID_66_">
			<use xlink:href="#SVGID_65_"  overflow="visible"/>
		</clipPath>
		<g clip-path="url(#SVGID_66_)">
			
				<image overflow="visible" width="68" height="73" xlink:href="586BAF9040BE5EB.jpg"  transform="matrix(1.2045 0 0 -1.2045 1075.1317 635.3311)">
			</image>
		</g>
	</g>
	<g>
		<defs>
			<path id="SVGID_67_" d="M1004.2,115.741c-50.846-29.361-96.961-32.723-130.695-14.444c-0.954,0.5-49.373,27.523-50.895,29.864
				c34.335-25.899,85.169-25.502,141.895,7.238c103.397,59.703,187.226,204.296,187.226,322.951
				c0,60.54-21.833,102.62-56.95,121.404c2.518-0.705,5.496-1.98,9.141-4.023c0.997-0.56,34.019-20.564,34.99-21.159
				c32.517-19.88,52.524-60.923,52.524-118.891C1191.437,320.026,1107.61,175.444,1004.2,115.741L1004.2,115.741z"/>
		</defs>
		<clipPath id="SVGID_68_">
			<use xlink:href="#SVGID_67_"  overflow="visible"/>
		</clipPath>
		<g clip-path="url(#SVGID_68_)">
			
				<image overflow="visible" width="312" height="419" xlink:href="586BAF9040BE5E8.jpg"  transform="matrix(1.2045 0 0 -1.2045 820.0199 585.7074)">
			</image>
		</g>
	</g>
	<g>
		<defs>
			<path id="SVGID_69_" d="M1162.313,306.852l-39.617,22.874c18.404,43.826,29.035,89.369,29.035,131.624
				c0,60.537-21.833,102.618-56.95,121.404c2.518-0.705,5.496-1.98,9.141-4.023c0.997-0.56,34.019-20.564,34.99-21.159
				c32.517-19.88,52.524-60.923,52.524-118.891C1191.437,396.358,1180.771,350.732,1162.313,306.852L1162.313,306.852z"/>
		</defs>
		<clipPath id="SVGID_70_">
			<use xlink:href="#SVGID_69_"  overflow="visible"/>
		</clipPath>
		<g clip-path="url(#SVGID_70_)">
			
				<image overflow="visible" width="88" height="233" xlink:href="586BAF9040BE5EF.jpg"  transform="matrix(1.2045 0 0 -1.2045 1091.9406 586.087)">
			</image>
		</g>
	</g>
	<path fill="#CACAF8" d="M1152.458,460.901c0,118.658-83.825,166.45-187.228,106.748
		c-103.407-59.702-187.229-204.285-187.229-322.94c0-118.66,83.822-166.453,187.229-106.75
		C1068.633,197.661,1152.458,342.244,1152.458,460.901L1152.458,460.901z"/>
	<path fill="#EFB185" d="M1050.01,580.615c0,0,5.718,13.378,4.868,25.025c-0.266,3.553,0.955,4.578,1.982,7.164
		c2.083,5.249-1.022,3.786-1.519,7.771c-0.299,2.383,0.964,11.348-2.831,13.9c-4.453,2.992-11.719,5.323-22.566,1.615
		c-13.113-4.514-27.207-22.163-21.974-38.401C1013.257,581.453,1030.137,567.865,1050.01,580.615L1050.01,580.615z"/>
	<path fill="#E6A376" d="M1008.91,615.11c4.936-14.598,17.562-32.258,17.422-33.174c-0.083-0.567,4.176-3.349,9.006-6.318
		c4.602,0.157,9.516,1.696,14.671,4.997c0,0,1.536,3.563,2.887,8.639c-3.039,3.521-9.281,7.591-10.201,10.566
		c-2.086,7-0.604,17.491,1.544,22.108c2.151,4.602-6.063,11.574-4.245,15.657l0.071,0.56c-2.992-0.168-6.362-0.78-10.122-2.055
		C1021.536,633.188,1012.799,624.933,1008.91,615.11L1008.91,615.11z"/>
	<path fill="#414141" d="M1051.174,581.237c0,0,1.723,6.051-6.589,11.083c-6.521,3.964-5.953,14.515-5.578,16.553
		c0.357,2.045,2.551,11.323,1.757,12.535c-1.551,2.312-7.059-4.732-9.587-4.2c-6.45,1.377-3.805,7.369,2.207,13.594
		c6.39,6.616-10.027,9.694-17.766,4.291c-4.132-2.865-5.627-4.604-11.172-15.074c-8.034-15.272-8.788-33.799,9.249-44.058
		C1031.715,565.727,1045.63,573.447,1051.174,581.237L1051.174,581.237z"/>
	<path fill="#292929" d="M1030.902,608.018c-15.228,6.572-30.66,6.751-31.873,2.085c-2.676-10.264-1.025-22.678,7.389-30.329
		c2.247-2.038,4.854-3.744,7.631-4.965c5.696-2.505,12.687-3.961,18.985-3.842c9.396,0.181,16.975,4.577,22.203,12.331
		c2.244,3.328,3.602,6.905,0.345,9.878C1050.341,597.963,1043.582,602.546,1030.902,608.018L1030.902,608.018z"/>
	<path fill="#E9E9FC" d="M1123.819,446.925c0,100.506-71.005,140.986-158.589,90.42c-87.59-50.568-158.586-173.033-158.586-273.539
		c0-100.505,70.996-140.988,158.586-90.419C1052.813,223.956,1123.819,346.423,1123.819,446.925L1123.819,446.925z"/>
	<path fill-rule="evenodd" clip-rule="evenodd" fill="#D8EBFF" d="M1100.218,337.798c14.971,36.387,23.6,74.092,23.6,109.126
		c0,94.627-62.941,136.045-143.385,98.348L1100.218,337.798L1100.218,337.798z"/>
	<path fill-rule="evenodd" clip-rule="evenodd" fill="#D8EBFF" d="M1055.213,257.49c6.942,9.505,13.486,19.395,19.544,29.575
		L940.003,520.459c-8.41-6.391-16.596-13.416-24.492-20.994L1055.213,257.49L1055.213,257.49z"/>
	<path fill-rule="evenodd" clip-rule="evenodd" fill="#D8EBFF" d="M824.196,357.125c-11.232-31.384-17.552-63.328-17.552-93.319
		c0-89.778,56.654-131.665,131.173-103.478L824.196,357.125L824.196,357.125z"/>
	<path fill-rule="evenodd" clip-rule="evenodd" fill="#FFFFFF" d="M937.817,160.328c8.911,3.306,18.069,7.666,27.413,13.059
		c33.422,19.299,64.432,49.064,89.983,84.103L915.511,499.465c-39.708-37.931-72.465-89.363-91.315-142.34L937.817,160.328
		L937.817,160.328z"/>
	<path fill-rule="evenodd" clip-rule="evenodd" fill="#FFFFFF" d="M1074.757,287.065c9.763,16.325,18.338,33.383,25.461,50.733
		L980.434,545.272c-5.011-2.321-10.078-4.968-15.204-7.928c-8.592-4.961-17.022-10.611-25.227-16.886L1074.757,287.065
		L1074.757,287.065z"/>
	<path fill="#5854C9" d="M861.01,158.029c-23.933,18.054-38.396,51.192-38.396,96.56c0,100.503,70.995,222.967,158.585,273.538
		c39.894,23.035,76.347,27.178,104.222,15.359c-29.082,21.938-72.141,21.6-120.19-6.141
		c-87.59-50.568-158.586-173.033-158.586-273.539C806.644,209.081,827.693,172.149,861.01,158.029L861.01,158.029z"/>
	<path opacity="0.3" fill="#73BAFF" d="M1547.365,1127.258c19.723-11.389,46.04-19.267,78.948-23.645
		c32.909-4.377,68.149-3.386,105.73,2.965c37.58,6.354,72.563,18.882,104.953,37.581c30.107,17.382,51.128,35.931,63.066,55.649
		c11.937,19.718,14.638,38.717,8.096,56.999c-6.538,18.279-21.022,33.893-43.444,46.839c-17.647,10.188-36.696,17.051-57.15,20.587
		c-20.448,3.537-40.43,5.245-59.947,5.125c-19.52-0.12-53.463-0.959-101.839-2.517c-13.496-0.36-24.81-0.36-33.946,0
		c-9.136,0.358-16.765,1.108-22.891,2.245c-6.124,1.139-11.781,2.55-16.973,4.226c-5.19,1.68-14.013,4.794-26.471,9.35
		c-25.536,10.186-48.687,9.29-69.449-2.698c-10.797-6.232-16.35-13.513-16.662-21.846c-0.311-8.329,6.488-16.511,20.4-24.543
		c17.438-10.069,35.243-17.23,53.409-21.487c18.169-4.256,36.544-6.592,55.125-7.01c18.583-0.419,42.094-0.091,70.539,0.987
		c24.913,0.961,43.288,1.439,55.122,1.439c11.834,0,23.41-0.928,34.726-2.785c11.317-1.859,21.23-5.245,29.743-10.161
		c16.611-9.587,24.448-21.247,23.515-34.971c-0.937-13.724-11.161-26.222-30.68-37.489c-22.836-13.187-45.416-19.569-67.734-19.15
		c-22.32,0.419-48.429,4.945-78.327,13.577c-30.52,9.469-55.641,8.512-75.364-2.877c-11.629-6.714-17.337-14.744-17.131-24.095
		C1532.936,1140.204,1537.813,1132.771,1547.365,1127.258L1547.365,1127.258z"/>
	<path opacity="0.3" fill="#73BAFF" d="M1358.014,1412.068c-12.665-7.311-19.62-16.061-20.868-26.251
		c-1.245-10.19,5.505-19.539,20.246-28.051c13.078-7.552,28.652-11.265,46.716-11.148c18.062,0.12,33.736,4.017,47.023,11.69
		c13.083,7.551,19.622,16.481,19.622,26.79c0,10.308-6.539,19.238-19.622,26.791c-14.533,8.391-30.621,12.288-48.271,11.688
		C1385.214,1422.976,1370.265,1419.141,1358.014,1412.068L1358.014,1412.068z"/>
	<g>
		<defs>
			<path id="SVGID_71_" d="M1911.606,1184.056c-0.02,6.589-1.177,13.093-3.472,19.51c-6.54,18.279-21.019,33.892-43.444,46.838
				c-17.645,10.188-36.696,17.051-57.147,20.589c-20.45,3.533-40.435,5.244-59.95,5.124c-19.517-0.122-53.463-0.961-101.839-2.52
				c-13.493-0.357-24.812-0.357-33.946,0c-9.134,0.361-16.765,1.11-22.889,2.248c-6.127,1.14-11.785,2.548-16.973,4.225
				c-5.19,1.679-14.015,4.796-26.471,9.352c-25.539,10.187-48.687,9.29-69.452-2.698c-1.936-1.118-3.703-2.27-5.303-3.455v47.888
				l0.01,0.702c0,10.307-6.542,19.237-19.62,26.79c-14.535,8.392-30.626,12.285-48.273,11.688
				c-17.646-0.601-32.596-4.436-44.846-11.509c-12.665-7.31-19.62-16.061-20.865-26.251c-0.059-0.475-0.098-0.949-0.123-1.419l0,0
				c-0.032-0.634-0.032-1.265,0-1.889v-62.675H1459.5c-0.07-0.567-0.119-1.138-0.138-1.713c-0.017-0.462-0.015-0.927,0.012-1.385
				l0,0v-64.566h322.937c13.942-9.115,20.484-19.976,19.625-32.583c-0.934-13.726-11.159-26.222-30.674-37.489
				c-22.841-13.187-45.416-19.569-67.737-19.15c-22.321,0.419-48.426,4.943-78.325,13.577c-30.523,9.467-55.644,8.509-75.367-2.88
				c-11.629-6.712-17.339-14.742-17.131-24.093c0.022-0.899,0.083-1.779,0.19-2.641v-61.752h268.776v41.489
				c12.093,5.066,23.861,10.904,35.303,17.508c13.312,7.685,24.845,15.598,34.601,23.739h40.034v69.297V1184.056L1911.606,1184.056
				L1911.606,1184.056z"/>
		</defs>
		<clipPath id="SVGID_72_">
			<use xlink:href="#SVGID_71_"  overflow="visible"/>
		</clipPath>
		<g transform="matrix(1 0 0 1 1.220703e-04 1.220703e-04)" clip-path="url(#SVGID_72_)">
			
				<image overflow="visible" width="484" height="285" xlink:href="586BAF9040BE5EA.jpg"  transform="matrix(1.2045 0 0 -1.2045 1333.723 1373.4149)">
			</image>
		</g>
	</g>
	<g>
		<defs>
			<path id="SVGID_73_" d="M1547.365,1006.429c19.723-11.389,46.04-19.27,78.948-23.647c32.909-4.375,68.149-3.384,105.73,2.97
				c37.58,6.349,72.563,18.877,104.953,37.579c30.107,17.38,51.128,35.931,63.066,55.649c11.937,19.72,14.638,38.717,8.096,56.997
				c-6.538,18.282-21.022,33.893-43.444,46.84c-17.647,10.193-36.696,17.052-57.15,20.589c-20.448,3.538-40.43,5.244-59.947,5.124
				c-19.52-0.118-53.463-0.959-101.839-2.517c-13.496-0.358-24.81-0.358-33.946,0c-9.136,0.362-16.765,1.11-22.891,2.25
				c-6.124,1.136-11.781,2.545-16.973,4.224c-5.19,1.676-14.013,4.793-26.471,9.35c-25.536,10.189-48.687,9.29-69.449-2.696
				c-10.797-6.234-16.35-13.518-16.662-21.847c-0.311-8.333,6.488-16.513,20.4-24.544c17.438-10.069,35.243-17.233,53.409-21.487
				c18.169-4.255,36.544-6.594,55.125-7.013c18.583-0.42,42.094-0.088,70.539,0.989c24.913,0.959,43.288,1.439,55.122,1.439
				c11.834,0,23.41-0.928,34.726-2.787c11.317-1.86,21.23-5.244,29.743-10.157c16.611-9.591,24.448-21.247,23.515-34.976
				c-0.937-13.724-11.161-26.219-30.68-37.488c-22.836-13.184-45.416-19.568-67.734-19.149c-22.32,0.421-48.429,4.945-78.327,13.577
				c-30.52,9.469-55.641,8.508-75.364-2.877c-11.629-6.713-17.337-14.746-17.131-24.095
				C1532.936,1019.373,1537.813,1011.943,1547.365,1006.429L1547.365,1006.429z"/>
		</defs>
		<clipPath id="SVGID_74_">
			<use xlink:href="#SVGID_73_"  overflow="visible"/>
		</clipPath>
		<g clip-path="url(#SVGID_74_)">
			
				<image overflow="visible" width="384" height="215" xlink:href="586BAF9040BE5E6.jpg"  transform="matrix(1.2045 0 0 -1.2045 1456.6135 1235.4552)">
			</image>
		</g>
	</g>
	<g>
		<defs>
			<path id="SVGID_75_" d="M1358.014,1291.24c-12.665-7.313-19.62-16.062-20.868-26.251c-1.245-10.188,5.505-19.539,20.246-28.051
				c13.078-7.55,28.652-11.268,46.716-11.148c18.062,0.12,33.736,4.017,47.023,11.688c13.083,7.553,19.622,16.482,19.622,26.79
				c0,10.31-6.539,19.241-19.622,26.791c-14.533,8.393-30.621,12.287-48.271,11.689
				C1385.214,1302.147,1370.265,1298.313,1358.014,1291.24L1358.014,1291.24z"/>
		</defs>
		<clipPath id="SVGID_76_">
			<use xlink:href="#SVGID_75_"  overflow="visible"/>
		</clipPath>
		<g transform="matrix(1 0 0 1 0 -1.220703e-04)" clip-path="url(#SVGID_76_)">
			
				<image overflow="visible" width="120" height="68" xlink:href="586BAF9040BE5E7.jpg"  transform="matrix(1.2045 0 0 -1.2045 1333.2552 1306.2404)">
			</image>
		</g>
	</g>
	<g>
		<defs>
			<path id="SVGID_77_" d="M1359.524,1235.755c-11.869,7.372-17.272,15.424-16.207,24.155c1.133,9.246,7.443,17.187,18.934,23.821
				c11.118,6.418,24.68,9.898,40.697,10.442c16.013,0.544,30.611-2.99,43.803-10.604c11.866-6.854,17.802-14.957,17.802-24.313
				c0-8.791-5.243-16.478-15.729-23.058c0.777,0.414,1.548,0.841,2.307,1.279c13.083,7.553,19.622,16.482,19.622,26.79
				c0,10.31-6.539,19.241-19.622,26.794c-14.533,8.39-30.621,12.285-48.271,11.686c-17.646-0.597-32.596-4.435-44.846-11.508
				c-12.665-7.313-19.62-16.062-20.868-26.251c-1.245-10.188,5.505-19.539,20.246-28.051
				C1358.095,1236.531,1358.806,1236.137,1359.524,1235.755L1359.524,1235.755z"/>
		</defs>
		<clipPath id="SVGID_78_">
			<use xlink:href="#SVGID_77_"  overflow="visible"/>
		</clipPath>
		<g clip-path="url(#SVGID_78_)">
			
				<image overflow="visible" width="120" height="60" xlink:href="586BAF9040BE5F7.jpg"  transform="matrix(1.2045 0 0 -1.2045 1333.2552 1306.4534)">
			</image>
		</g>
	</g>
	<g>
		<defs>
			<path id="SVGID_79_" d="M1834.431,1021.866c0.861,0.487,1.713,0.972,2.565,1.466c30.104,17.38,51.126,35.931,63.066,55.649
				c11.937,19.72,14.638,38.717,8.096,56.997c-6.538,18.282-21.022,33.893-43.444,46.84c-17.647,10.193-36.696,17.052-57.15,20.589
				c-20.448,3.538-40.43,5.244-59.947,5.124c-19.52-0.118-53.463-0.959-101.839-2.517c-13.496-0.358-24.81-0.358-33.946,0
				c-9.136,0.362-16.765,1.11-22.891,2.25c-6.124,1.136-11.781,2.545-16.973,4.224c-5.19,1.676-14.013,4.793-26.471,9.35
				c-25.538,10.189-48.687,9.29-69.449-2.696c-10.797-6.234-16.35-13.518-16.662-21.847c-0.211-5.603,2.799-11.139,9.021-16.606
				c-1.451,2.678-2.127,5.366-2.026,8.075c0.301,8.065,5.678,15.116,16.127,21.147c20.099,11.601,42.504,12.474,67.224,2.609
				c12.06-4.409,20.598-7.425,25.622-9.047c5.025-1.628,10.504-2.99,16.429-4.091c5.928-1.103,13.315-1.828,22.156-2.177
				c8.845-0.35,19.798-0.35,32.861,0c46.822,1.507,79.68,2.321,98.569,2.436c18.893,0.115,38.236-1.539,58.029-4.96
				c19.797-3.423,38.236-10.068,55.317-19.929c21.705-12.531,35.723-27.641,42.05-45.335c6.332-17.695,3.721-36.089-7.837-55.171
				C1881.711,1055.719,1862.214,1038.26,1834.431,1021.866L1834.431,1021.866z M1550.022,1004.939
				c-8.247,5.232-12.462,12.121-12.651,20.661c-0.203,9.05,5.326,16.824,16.579,23.322c19.091,11.021,43.409,11.95,72.948,2.782
				c28.94-8.354,54.213-12.73,75.816-13.137c21.605-0.408,43.459,5.77,65.567,18.534c11.049,6.381,19.026,13.169,23.917,20.365
				c-5.036-5.654-12.008-11.055-20.915-16.197c-22.836-13.184-45.416-19.568-67.736-19.149
				c-22.317,0.421-48.426,4.945-78.325,13.574c-30.52,9.471-55.641,8.51-75.367-2.875c-11.626-6.713-17.334-14.746-17.128-24.095
				c0.209-9.351,5.086-16.782,14.638-22.295C1548.238,1005.924,1549.12,1005.429,1550.022,1004.939L1550.022,1004.939z"/>
		</defs>
		<clipPath id="SVGID_80_">
			<use xlink:href="#SVGID_79_"  overflow="visible"/>
		</clipPath>
		<g clip-path="url(#SVGID_80_)">
			
				<image overflow="visible" width="384" height="193" xlink:href="586BAF9040BE5C4.jpg"  transform="matrix(1.2045 0 0 -1.2045 1456.6405 1235.1246)">
			</image>
		</g>
	</g>
	<path opacity="0.3" fill-rule="evenodd" clip-rule="evenodd" fill="#73BAFF" d="M413.344,1205.159
		c-4.35,2.511-10.942,2.785-14.707,0.61L88.648,1026.796c-3.766-2.177-3.296-5.98,1.057-8.492l205.793-118.813
		c4.349-2.512,10.942-2.784,14.705-0.611l309.992,178.97c3.763,2.177,3.293,5.982-1.059,8.494L413.344,1205.159L413.344,1205.159z"
		/>
	<g>
		<defs>
			<path id="SVGID_81_" d="M86.111,991.478c-0.113,1.637,0.814,3.215,2.823,4.374l308.443,178.075
				c4.196,2.424,11.536,2.123,16.38-0.676l204.935-118.323c2.747-1.583,4.105-3.634,4.007-5.55l0,0V979.06l-7.768,4.482v0.203
				L311.433,808.522c-4.196-2.424-11.541-2.119-16.385,0.678L93.625,925.494l-7.519-4.34v70.319L86.111,991.478L86.111,991.478z"/>
		</defs>
		<clipPath id="SVGID_82_">
			<use xlink:href="#SVGID_81_"  overflow="visible"/>
		</clipPath>
		<g clip-path="url(#SVGID_82_)">
			
				<image overflow="visible" width="452" height="312" xlink:href="586BAF9040BE5C7.jpg"  transform="matrix(1.2045 0 0 -1.2045 83.1567 1179.7944)">
			</image>
		</g>
	</g>
	<g>
		<defs>
			<path id="SVGID_83_" d="M579.828,963.481l-170.874,98.653v112.936c1.72-0.385,3.372-0.993,4.803-1.818l204.935-118.323
				c2.747-1.583,4.105-3.634,4.007-5.55V979.06l-7.768,4.482v0.203L579.828,963.481L579.828,963.481z"/>
		</defs>
		<clipPath id="SVGID_84_">
			<use xlink:href="#SVGID_83_"  overflow="visible"/>
		</clipPath>
		<g clip-path="url(#SVGID_84_)">
			
				<image overflow="visible" width="184" height="180" xlink:href="586BAF9040BE5C5.jpg"  transform="matrix(1.2045 0 0 -1.2045 405.6217 1178.2211)">
			</image>
		</g>
	</g>
	<path fill-rule="evenodd" clip-rule="evenodd" fill="#D7EBFF" d="M413.344,1103.141c-4.35,2.512-10.942,2.784-14.707,0.61
		L88.648,924.778c-3.766-2.173-3.296-5.98,1.057-8.491l205.793-118.815c4.349-2.512,10.942-2.787,14.705-0.611l309.992,178.973
		c3.763,2.177,3.293,5.98-1.059,8.492L413.344,1103.141L413.344,1103.141z"/>
	<path fill-rule="evenodd" clip-rule="evenodd" fill="#7EC0FF" d="M185.23,904.889c-1.141-0.673-2.978-0.685-4.097-0.027
		l-20.544,12.087c-1.123,0.661-1.111,1.745,0.029,2.422l2.228,1.317c1.141,0.68,2.978,0.689,4.096,0.029l20.544-12.087
		c1.123-0.661,1.11-1.747-0.029-2.421L185.23,904.889L185.23,904.889z"/>
	<path fill-rule="evenodd" clip-rule="evenodd" fill="#7EC0FF" d="M309.154,982.239c-1.136-0.675-2.971-0.689-4.092-0.027
		l-20.544,12.084c-1.119,0.664-1.109,1.747,0.032,2.421l2.226,1.321c1.142,0.68,2.975,0.689,4.099,0.027l20.54-12.084
		c1.125-0.664,1.11-1.747-0.029-2.421L309.154,982.239L309.154,982.239z"/>
	<path fill-rule="evenodd" clip-rule="evenodd" fill="#7EC0FF" d="M242.624,893.516c-1.132-0.684-2.965-0.709-4.088-0.056
		l-59.158,34.424c-1.128,0.653-1.123,1.74,0.01,2.422l2.215,1.341c1.133,0.686,2.965,0.71,4.093,0.059l59.158-34.427
		c1.128-0.651,1.123-1.735-0.015-2.42L242.624,893.516L242.624,893.516z"/>
	<path fill-rule="evenodd" clip-rule="evenodd" fill="#7EC0FF" d="M367.17,972.242c-1.141-0.673-2.978-0.683-4.097-0.025
		l-58.943,34.863c-1.12,0.659-1.106,1.745,0.032,2.419l2.233,1.32c1.136,0.675,2.975,0.687,4.097,0.024l58.938-34.859
		c1.123-0.662,1.108-1.748-0.032-2.422L367.17,972.242L367.17,972.242z"/>
	<path fill-rule="evenodd" clip-rule="evenodd" fill="#7EC0FF" d="M299.136,929.057c-1.14-0.675-2.975-0.684-4.098-0.024
		l-58.949,34.836c-1.125,0.664-1.111,1.747,0.029,2.421l2.227,1.321c1.137,0.677,2.975,0.689,4.098,0.027l58.952-34.839
		c1.12-0.659,1.108-1.745-0.032-2.418L299.136,929.057L299.136,929.057z"/>
	<path fill-rule="evenodd" clip-rule="evenodd" fill="#7EC0FF" d="M424.129,1007.558c-1.137-0.673-2.975-0.683-4.098-0.024
		l-58.948,34.836c-1.126,0.661-1.112,1.747,0.025,2.422l2.231,1.32c1.14,0.675,2.975,0.687,4.098,0.027l58.952-34.837
		c1.123-0.66,1.108-1.745-0.029-2.419L424.129,1007.558L424.129,1007.558z"/>
	<path fill-rule="evenodd" clip-rule="evenodd" fill="#7EC0FF" d="M305.329,857.089c-1.135-0.684-2.968-0.711-4.093-0.056
		l-52.642,30.513c-1.128,0.656-1.12,1.74,0.01,2.425l2.217,1.338c1.13,0.687,2.965,0.711,4.093,0.059l52.642-30.518
		c1.125-0.651,1.12-1.74-0.01-2.423L305.329,857.089L305.329,857.089z"/>
	<path fill-rule="evenodd" clip-rule="evenodd" fill="#7EC0FF" d="M432.367,931.619c-1.14-0.677-2.975-0.687-4.098-0.025
		l-52.448,30.905c-1.123,0.661-1.108,1.745,0.029,2.418l2.231,1.321c1.139,0.675,2.975,0.687,4.097,0.024l52.449-30.905
		c1.121-0.661,1.107-1.747-0.029-2.422L432.367,931.619L432.367,931.619z"/>
	<path fill-rule="evenodd" clip-rule="evenodd" fill="#7EC0FF" d="M364.48,890.663c-1.14-0.675-2.975-0.687-4.098-0.027
		l-52.458,30.885c-1.123,0.661-1.108,1.745,0.029,2.422l2.229,1.32c1.137,0.677,2.973,0.689,4.098,0.024l52.458-30.883
		c1.12-0.661,1.108-1.747-0.032-2.42L364.48,890.663L364.48,890.663z"/>
	<path fill-rule="evenodd" clip-rule="evenodd" fill="#7EC0FF" d="M490.002,968.665c-1.137-0.675-2.975-0.687-4.098-0.025
		l-52.458,30.883c-1.123,0.664-1.108,1.747,0.029,2.422l2.229,1.32c1.137,0.677,2.975,0.689,4.095,0.027l52.461-30.885
		c1.123-0.659,1.108-1.745-0.029-2.421L490.002,968.665L490.002,968.665z"/>
	<path fill-rule="evenodd" clip-rule="evenodd" fill="#7EC0FF" d="M251.545,905.045c-1.14-0.676-2.975-0.685-4.098-0.027
		l-54.225,31.937c-1.125,0.66-1.11,1.745,0.029,2.419l2.227,1.323c1.142,0.673,2.975,0.683,4.098,0.025l54.227-31.937
		c1.12-0.66,1.108-1.742-0.032-2.419L251.545,905.045L251.545,905.045z"/>
	<path fill-rule="evenodd" clip-rule="evenodd" fill="#7EC0FF" d="M375.057,982.618c-1.14-0.677-2.975-0.689-4.098-0.029
		l-54.226,31.937c-1.124,0.661-1.109,1.745,0.027,2.42l2.233,1.321c1.135,0.675,2.973,0.687,4.095,0.024l54.227-31.934
		c1.12-0.661,1.108-1.745-0.032-2.421L375.057,982.618L375.057,982.618z"/>
	<path fill-rule="evenodd" clip-rule="evenodd" fill="#7EC0FF" d="M308.786,940.767c-1.139-0.675-2.975-0.684-4.096-0.024
		l-54.228,31.936c-1.123,0.66-1.108,1.743,0.029,2.419l2.231,1.321c1.139,0.676,2.975,0.688,4.097,0.027l54.226-31.935
		c1.124-0.661,1.109-1.747-0.027-2.422L308.786,940.767L308.786,940.767z"/>
	<path fill-rule="evenodd" clip-rule="evenodd" fill="#7EC0FF" d="M432.314,1018.331c-1.138-0.673-2.975-0.686-4.098-0.027
		l-54.227,31.934c-1.12,0.662-1.108,1.747,0.032,2.424l2.227,1.319c1.14,0.676,2.978,0.688,4.098,0.024l54.228-31.932
		c1.121-0.663,1.109-1.747-0.031-2.422L432.314,1018.331L432.314,1018.331z"/>
	<path fill-rule="evenodd" clip-rule="evenodd" fill="#7EC0FF" d="M249.805,921.663c-1.137-0.676-2.975-0.686-4.096-0.027
		L206.21,944.89c-1.12,0.662-1.111,1.745,0.032,2.422l2.226,1.321c1.141,0.673,2.974,0.686,4.099,0.027l39.497-23.256
		c1.123-0.66,1.108-1.744-0.029-2.419L249.805,921.663L249.805,921.663z"/>
	<path fill-rule="evenodd" clip-rule="evenodd" fill="#7EC0FF" d="M375.089,1000.565c-1.14-0.675-2.975-0.684-4.098-0.024
		l-39.497,23.251c-1.123,0.664-1.113,1.747,0.03,2.424l2.228,1.318c1.139,0.677,2.977,0.689,4.097,0.024l39.5-23.251
		c1.12-0.659,1.11-1.745-0.032-2.418L375.089,1000.565L375.089,1000.565z"/>
	<path fill-rule="evenodd" clip-rule="evenodd" fill="#7EC0FF" d="M306.655,957.595c-1.137-0.675-2.975-0.684-4.098-0.024
		l-39.497,23.251c-1.124,0.664-1.109,1.747,0.029,2.423l2.228,1.319c1.142,0.677,2.975,0.689,4.097,0.027l39.5-23.254
		c1.123-0.659,1.108-1.745-0.032-2.419L306.655,957.595L306.655,957.595z"/>
	<path fill-rule="evenodd" clip-rule="evenodd" fill="#7EC0FF" d="M429.461,1034.687c-1.137-0.676-2.975-0.686-4.098-0.027
		l-39.498,23.254c-1.123,0.662-1.108,1.745,0.029,2.422l2.23,1.321c1.14,0.676,2.975,0.686,4.098,0.027l39.5-23.254
		c1.123-0.662,1.107-1.746-0.029-2.422L429.461,1034.687L429.461,1034.687z"/>
	<path fill-rule="evenodd" clip-rule="evenodd" fill="#7EC0FF" d="M337.121,854.68c-1.14-0.673-2.975-0.688-4.098-0.027
		l-75.2,44.259c-1.123,0.66-1.11,1.745,0.03,2.419l2.229,1.323c1.137,0.673,2.975,0.683,4.098,0.024l75.2-44.256
		c1.123-0.665,1.108-1.748-0.029-2.422L337.121,854.68L337.121,854.68z"/>
	<path fill-rule="evenodd" clip-rule="evenodd" fill="#7EC0FF" d="M461.102,932c-1.14-0.675-2.973-0.687-4.1-0.027l-75.2,44.259
		c-1.123,0.661-1.108,1.745,0.032,2.421l2.228,1.321c1.139,0.677,2.974,0.687,4.097,0.027l75.2-44.259
		c1.123-0.661,1.111-1.745-0.029-2.421L461.102,932L461.102,932z"/>
	<path fill-rule="evenodd" clip-rule="evenodd" fill="#7EC0FF" d="M400.832,886.947c-1.141-0.676-2.976-0.688-4.099-0.029
		l-75.2,44.261c-1.12,0.66-1.11,1.742,0.032,2.419l2.225,1.321c1.142,0.676,2.978,0.686,4.1,0.027l75.2-44.259
		c1.123-0.662,1.11-1.745-0.029-2.422L400.832,886.947L400.832,886.947z"/>
	<path fill-rule="evenodd" clip-rule="evenodd" fill="#7EC0FF" d="M518.36,967.713c-1.141-0.673-2.976-0.686-4.099-0.025
		l-75.2,44.256c-1.12,0.662-1.11,1.747,0.032,2.422l2.225,1.323c1.142,0.673,2.978,0.683,4.1,0.025l75.2-44.256
		c1.123-0.662,1.11-1.748-0.029-2.422L518.36,967.713L518.36,967.713z"/>
	<path fill-rule="evenodd" clip-rule="evenodd" fill="#7EC0FF" d="M361.454,855.979c-1.14-0.676-2.978-0.686-4.1-0.027
		l-100.8,59.328c-1.123,0.659-1.11,1.745,0.03,2.421l2.228,1.318c1.139,0.677,2.973,0.689,4.099,0.027l100.8-59.325
		c1.123-0.661,1.111-1.745-0.029-2.421L361.454,855.979L361.454,855.979z"/>
	<path fill-rule="evenodd" clip-rule="evenodd" fill="#7EC0FF" d="M485.294,932.951c-1.14-0.676-2.973-0.685-4.098-0.027
		l-100.8,59.328c-1.125,0.66-1.11,1.742,0.027,2.419l2.231,1.323c1.136,0.673,2.975,0.683,4.097,0.024l100.802-59.328
		c1.12-0.66,1.111-1.742-0.032-2.419L485.294,932.951L485.294,932.951z"/>
	<path fill-rule="evenodd" clip-rule="evenodd" fill="#7EC0FF" d="M418.301,891.911c-1.137-0.675-2.975-0.684-4.098-0.025
		l-100.8,59.324c-1.123,0.662-1.112,1.748,0.029,2.422l2.228,1.321c1.14,0.673,2.973,0.688,4.097,0.025l100.802-59.323
		c1.123-0.661,1.11-1.747-0.03-2.422L418.301,891.911L418.301,891.911z"/>
	<path fill-rule="evenodd" clip-rule="evenodd" fill="#7EC0FF" d="M541.107,969.003c-1.139-0.673-2.975-0.686-4.096-0.027
		l-100.802,59.325c-1.123,0.664-1.11,1.747,0.029,2.423l2.227,1.319c1.142,0.677,2.978,0.689,4.098,0.03l100.805-59.328
		c1.122-0.661,1.107-1.747-0.029-2.421L541.107,969.003L541.107,969.003z"/>
	<path opacity="0.3" fill-rule="evenodd" clip-rule="evenodd" fill="#73BAFF" d="M590.831,1408.947
		c4.35,2.512,10.939,2.786,14.706,0.61l309.989-178.972c3.77-2.176,3.295-5.98-1.053-8.491l-205.796-118.815
		c-4.352-2.51-10.942-2.784-14.709-0.61l-309.987,178.97c-3.768,2.176-3.294,5.982,1.054,8.493L590.831,1408.947L590.831,1408.947z"
		/>
	<g>
		<defs>
			<path id="SVGID_85_" d="M918.06,1203.826c0.113,1.637-0.814,3.215-2.823,4.375l-308.438,178.075
				c-4.198,2.424-11.537,2.119-16.384-0.676l-204.933-118.323c-2.744-1.583-4.106-3.634-4.004-5.55l0,0v-7.168l7.768,4.487v0.203
				l303.495-175.226c4.197-2.421,11.539-2.117,16.384,0.682l201.426,116.292l7.518-4.34v7.164L918.06,1203.826L918.06,1203.826z"/>
		</defs>
		<clipPath id="SVGID_86_">
			<use xlink:href="#SVGID_85_"  overflow="visible"/>
		</clipPath>
		<g clip-path="url(#SVGID_86_)">
			
				<image overflow="visible" width="452" height="259" xlink:href="586BAF9040BE5C3.jpg"  transform="matrix(1.2045 0 0 -1.2045 378.8871 1392.1572)">
			</image>
		</g>
	</g>
	<path fill-rule="evenodd" clip-rule="evenodd" fill="#D7EBFF" d="M590.831,1378.644c4.35,2.512,10.939,2.784,14.706,0.611
		l309.989-178.974c3.77-2.173,3.295-5.978-1.053-8.491l-205.796-118.815c-4.352-2.512-10.942-2.786-14.709-0.61l-309.987,178.973
		c-3.768,2.173-3.294,5.98,1.054,8.491L590.831,1378.644L590.831,1378.644z"/>
	<path fill-rule="evenodd" clip-rule="evenodd" fill="#7EC0FF" d="M695.605,1109.182c1.137-0.675,2.975-0.689,4.098-0.027
		l20.542,12.084c1.121,0.664,1.109,1.747-0.029,2.423l-2.231,1.321c-1.138,0.677-2.975,0.687-4.098,0.025l-20.541-12.084
		c-1.123-0.661-1.108-1.747,0.03-2.42L695.605,1109.182L695.605,1109.182z"/>
	<path fill-rule="evenodd" clip-rule="evenodd" fill="#7EC0FF" d="M566.653,1183.629c1.14-0.673,2.978-0.686,4.098-0.025
		l20.543,12.084c1.12,0.662,1.11,1.748-0.032,2.424l-2.225,1.319c-1.142,0.676-2.978,0.688-4.1,0.025l-20.538-12.084
		c-1.125-0.66-1.111-1.745,0.027-2.419L566.653,1183.629L566.653,1183.629z"/>
	<path fill-rule="evenodd" clip-rule="evenodd" fill="#7EC0FF" d="M740.33,1156.768c1.133-0.684,2.965-0.711,4.092-0.056
		l59.156,34.425c1.128,0.651,1.123,1.737-0.01,2.421l-2.215,1.341c-1.135,0.683-2.968,0.71-4.093,0.056l-59.159-34.422
		c-1.128-0.654-1.12-1.737,0.01-2.423L740.33,1156.768L740.33,1156.768z"/>
	<path fill-rule="evenodd" clip-rule="evenodd" fill="#7EC0FF" d="M611.475,1229.984c1.14-0.675,2.975-0.684,4.098-0.024
		l58.938,34.863c1.122,0.659,1.107,1.742-0.029,2.418l-2.231,1.319c-1.137,0.676-2.975,0.687-4.096,0.027l-58.938-34.863
		c-1.123-0.659-1.111-1.745,0.029-2.418L611.475,1229.984L611.475,1229.984z"/>
	<path fill-rule="evenodd" clip-rule="evenodd" fill="#7EC0FF" d="M680.491,1190.391c1.139-0.677,2.975-0.689,4.097-0.03
		l58.951,34.841c1.125,0.659,1.11,1.742-0.027,2.418l-2.231,1.321c-1.136,0.677-2.975,0.687-4.097,0.027l-58.953-34.839
		c-1.12-0.661-1.108-1.745,0.032-2.421L680.491,1190.391L680.491,1190.391z"/>
	<path fill-rule="evenodd" clip-rule="evenodd" fill="#7EC0FF" d="M551.816,1266.765c1.142-0.675,2.978-0.687,4.098-0.024
		l58.953,34.836c1.122,0.659,1.109,1.747-0.029,2.421l-2.228,1.321c-1.14,0.675-2.978,0.687-4.1,0.025l-58.947-34.836
		c-1.125-0.659-1.113-1.745,0.027-2.421L551.816,1266.765L551.816,1266.765z"/>
	<path fill-rule="evenodd" clip-rule="evenodd" fill="#7EC0FF" d="M676.951,1119.952c1.133-0.687,2.965-0.711,4.093-0.059
		l52.642,30.516c1.125,0.656,1.12,1.74-0.012,2.425l-2.215,1.338c-1.133,0.687-2.965,0.711-4.093,0.059l-52.639-30.518
		c-1.128-0.651-1.123-1.74,0.01-2.423L676.951,1119.952L676.951,1119.952z"/>
	<path fill-rule="evenodd" clip-rule="evenodd" fill="#7EC0FF" d="M549.812,1194.423c1.14-0.675,2.978-0.684,4.098-0.025
		l52.451,30.907c1.123,0.659,1.105,1.745-0.032,2.418l-2.229,1.319c-1.138,0.677-2.975,0.687-4.098,0.027l-52.449-30.907
		c-1.119-0.659-1.107-1.745,0.032-2.419L549.812,1194.423L549.812,1194.423z"/>
	<path fill-rule="evenodd" clip-rule="evenodd" fill="#7EC0FF" d="M617.955,1153.614c1.139-0.677,2.974-0.689,4.097-0.025
		l52.459,30.883c1.122,0.662,1.107,1.747-0.029,2.422l-2.231,1.321c-1.137,0.673-2.973,0.686-4.096,0.027l-52.459-30.886
		c-1.123-0.661-1.108-1.745,0.029-2.418L617.955,1153.614L617.955,1153.614z"/>
	<path fill-rule="evenodd" clip-rule="evenodd" fill="#7EC0FF" d="M488.911,1229.585c1.14-0.677,2.977-0.687,4.098-0.027
		l52.46,30.888c1.123,0.659,1.108,1.742-0.029,2.418l-2.229,1.321c-1.14,0.677-2.975,0.687-4.098,0.027l-52.458-30.888
		c-1.123-0.659-1.108-1.742,0.029-2.418L488.911,1229.585L488.911,1229.585z"/>
	<path fill-rule="evenodd" clip-rule="evenodd" fill="#7EC0FF" d="M748.023,1177.888c1.139-0.675,2.973-0.687,4.097-0.024
		l54.226,31.932c1.123,0.664,1.108,1.747-0.029,2.42l-2.231,1.321c-1.139,0.678-2.975,0.688-4.094,0.027l-54.226-31.934
		c-1.122-0.659-1.112-1.745,0.029-2.421L748.023,1177.888L748.023,1177.888z"/>
	<path fill-rule="evenodd" clip-rule="evenodd" fill="#7EC0FF" d="M620.481,1253.135c1.14-0.676,2.978-0.688,4.1-0.024
		l54.225,31.932c1.12,0.661,1.11,1.747-0.032,2.42l-2.225,1.321c-1.142,0.677-2.978,0.687-4.1,0.027l-54.225-31.934
		c-1.123-0.661-1.11-1.745,0.029-2.423L620.481,1253.135L620.481,1253.135z"/>
	<path fill-rule="evenodd" clip-rule="evenodd" fill="#7EC0FF" d="M688.247,1212.147c1.136-0.676,2.972-0.686,4.094-0.024
		l54.228,31.934c1.123,0.659,1.108,1.745-0.029,2.419l-2.231,1.322c-1.136,0.675-2.975,0.684-4.097,0.025l-54.224-31.933
		c-1.125-0.662-1.11-1.746,0.029-2.422L688.247,1212.147L688.247,1212.147z"/>
	<path fill-rule="evenodd" clip-rule="evenodd" fill="#7EC0FF" d="M561.26,1287.711c1.139-0.675,2.973-0.684,4.097-0.025
		l54.226,31.937c1.121,0.659,1.107,1.742-0.03,2.418l-2.231,1.321c-1.139,0.676-2.975,0.688-4.097,0.027L559,1291.453
		c-1.12-0.659-1.11-1.742,0.032-2.418L561.26,1287.711L561.26,1287.711z"/>
	<path fill-rule="evenodd" clip-rule="evenodd" fill="#7EC0FF" d="M762.625,1201.935c1.142-0.673,2.978-0.686,4.1-0.027
		l31.238,18.486c1.123,0.661,1.108,1.745-0.029,2.421l-2.23,1.319c-1.137,0.677-2.975,0.689-4.095,0.029l-31.24-18.485
		c-1.123-0.662-1.111-1.747,0.029-2.422L762.625,1201.935L762.625,1201.935z"/>
	<path fill-rule="evenodd" clip-rule="evenodd" fill="#7EC0FF" d="M629.086,1276.068c1.137-0.673,2.975-0.683,4.098-0.024
		l39.498,23.251c1.12,0.662,1.108,1.747-0.032,2.422l-2.227,1.321c-1.14,0.673-2.975,0.688-4.098,0.025l-39.497-23.251
		c-1.124-0.66-1.112-1.746,0.027-2.419L629.086,1276.068L629.086,1276.068z"/>
	<path fill-rule="evenodd" clip-rule="evenodd" fill="#7EC0FF" d="M700.109,1234.593c1.137-0.673,2.973-0.687,4.095-0.024
		l36.909,21.756c1.123,0.664,1.108,1.747-0.029,2.422l-2.225,1.32c-1.142,0.677-2.978,0.689-4.1,0.026l-36.909-21.758
		c-1.123-0.659-1.108-1.745,0.029-2.421L700.109,1234.593L700.109,1234.593z"/>
	<path fill-rule="evenodd" clip-rule="evenodd" fill="#7EC0FF" d="M574.715,1310.188c1.137-0.673,2.973-0.683,4.093-0.024
		l39.5,23.255c1.123,0.661,1.11,1.745-0.029,2.421l-2.228,1.319c-1.139,0.677-2.973,0.689-4.099,0.029l-39.495-23.256
		c-1.125-0.66-1.11-1.742,0.027-2.419L574.715,1310.188L574.715,1310.188z"/>
	<path fill-rule="evenodd" clip-rule="evenodd" fill="#7EC0FF" d="M663.142,1127.924c1.137-0.673,2.973-0.686,4.095-0.027
		l75.2,44.259c1.128,0.662,1.11,1.745-0.027,2.419l-2.229,1.324c-1.138,0.676-2.973,0.686-4.095,0.024l-75.2-44.257
		c-1.125-0.661-1.11-1.747,0.029-2.421L663.142,1127.924L663.142,1127.924z"/>
	<path fill-rule="evenodd" clip-rule="evenodd" fill="#7EC0FF" d="M535.113,1202.909c1.142-0.673,2.975-0.685,4.1-0.027l75.2,44.258
		c1.123,0.661,1.111,1.745-0.029,2.422l-2.227,1.32c-1.142,0.677-2.978,0.687-4.098,0.026l-75.203-44.256
		c-1.12-0.662-1.111-1.746,0.032-2.422L535.113,1202.909L535.113,1202.909z"/>
	<path fill-rule="evenodd" clip-rule="evenodd" fill="#7EC0FF" d="M603.006,1162.255c1.14-0.676,2.975-0.688,4.095-0.027
		l75.202,44.26c1.123,0.659,1.108,1.742-0.029,2.418l-2.228,1.321c-1.14,0.676-2.978,0.688-4.099,0.027l-75.201-44.259
		c-1.122-0.66-1.107-1.745,0.029-2.422L603.006,1162.255L603.006,1162.255z"/>
	<path fill-rule="evenodd" clip-rule="evenodd" fill="#7EC0FF" d="M475.555,1237.294c1.14-0.675,2.978-0.684,4.098-0.024
		l75.203,44.256c1.12,0.664,1.108,1.747-0.032,2.421l-2.227,1.321c-1.14,0.677-2.975,0.689-4.098,0.027l-75.2-44.259
		c-1.123-0.659-1.11-1.745,0.029-2.419L475.555,1237.294L475.555,1237.294z"/>
	<path fill-rule="evenodd" clip-rule="evenodd" fill="#7EC0FF" d="M649.653,1135.71c1.14-0.676,2.978-0.686,4.1-0.025l100.8,59.325
		c1.123,0.659,1.111,1.747-0.029,2.422l-2.228,1.32c-1.139,0.675-2.971,0.687-4.099,0.025l-100.8-59.322
		c-1.123-0.665-1.11-1.748,0.029-2.424L649.653,1135.71L649.653,1135.71z"/>
	<path fill-rule="evenodd" clip-rule="evenodd" fill="#7EC0FF" d="M522.194,1210.369c1.14-0.676,2.975-0.688,4.098-0.024
		l100.805,59.325c1.119,0.659,1.107,1.745-0.032,2.418l-2.228,1.323c-1.14,0.675-2.975,0.685-4.098,0.025l-100.805-59.325
		c-1.119-0.661-1.107-1.745,0.032-2.421L522.194,1210.369L522.194,1210.369z"/>
	<path fill-rule="evenodd" clip-rule="evenodd" fill="#7EC0FF" d="M589.28,1170.178c1.14-0.675,2.973-0.687,4.097-0.024
		l100.802,59.324c1.123,0.662,1.108,1.746-0.03,2.422l-2.229,1.319c-1.137,0.676-2.975,0.688-4.098,0.029L587.02,1173.92
		c-1.119-0.659-1.109-1.747,0.032-2.421L589.28,1170.178L589.28,1170.178z"/>
	<path fill-rule="evenodd" clip-rule="evenodd" fill="#7EC0FF" d="M463.064,1244.506c1.142-0.673,2.978-0.686,4.1-0.027
		l100.802,59.325c1.123,0.665,1.108,1.747-0.03,2.424l-2.231,1.319c-1.136,0.676-2.973,0.688-4.097,0.027l-100.802-59.325
		c-1.12-0.662-1.11-1.747,0.032-2.422L463.064,1244.506L463.064,1244.506z"/>
	<path opacity="0.3" fill="#73BAFF" d="M789.054,1435.811c-14.67-8.472-14.748-22.216-0.16-30.635l120.552-69.599
		c20.334-11.749,53.537-11.688,74.003,0.13c20.467,11.822,20.573,30.981,0.23,42.727l-107.69,62.178
		c-2.26,1.306-5.933,1.297-8.201-0.017c-2.269-1.306-2.283-3.424-0.027-4.732l107.692-62.176
		c15.833-9.146,15.755-24.058-0.175-33.265c-15.931-9.195-41.773-9.241-57.604-0.095l-120.562,69.599
		c-10.07,5.814-10.019,15.314,0.113,21.163c10.141,5.852,26.594,5.887,36.664,0.069l115.458-66.657
		c4.554-2.63,4.537-6.929-0.051-9.569c-4.581-2.647-12.013-2.664-16.564-0.034l-96.202,55.541l0.01,1.086l1.877,0.01l70.757-40.855
		c2.258-1.296,5.931-1.296,8.198,0.017c2.269,1.316,2.288,3.433,0.029,4.73l-70.758,40.855c-5.021,2.894-13.22,2.887-18.279-0.034
		c-5.055-2.921-5.082-7.651-0.059-10.557l96.197-55.538c9.058-5.225,23.85-5.199,32.967,0.061c9.116,5.261,9.17,13.802,0.105,19.036
		l-115.457,66.663C827.534,1444.316,803.733,1444.282,789.054,1435.811L789.054,1435.811z"/>
	<path fill="#94A7E6" d="M789.054,1428.402c-14.67-8.472-14.748-22.213-0.16-30.633l120.552-69.601
		c20.334-11.745,53.537-11.682,74.003,0.135c20.467,11.817,20.573,30.977,0.23,42.722l-107.69,62.18
		c-2.26,1.304-5.933,1.297-8.201-0.017c-2.269-1.309-2.283-3.426-0.027-4.732l107.692-62.178
		c15.833-9.143,15.755-24.058-0.175-33.263c-15.931-9.197-41.773-9.241-57.604-0.098l-120.562,69.599
		c-10.07,5.818-10.019,15.314,0.113,21.166c10.141,5.852,26.594,5.887,36.664,0.071l115.458-66.663
		c4.554-2.63,4.537-6.927-0.051-9.565c-4.581-2.649-12.013-2.667-16.564-0.037l-96.202,55.539l0.01,1.088l1.877,0.007l70.757-40.855
		c2.258-1.297,5.931-1.297,8.198,0.017c2.269,1.316,2.288,3.433,0.029,4.732l-70.758,40.852c-5.021,2.897-13.22,2.887-18.279-0.034
		c-5.055-2.921-5.082-7.651-0.059-10.555l96.197-55.538c9.058-5.228,23.85-5.201,32.967,0.059c9.116,5.261,9.17,13.804,0.105,19.036
		L842.114,1428.5C827.534,1436.91,803.733,1436.876,789.054,1428.402L789.054,1428.402z"/>
	<path fill="#EFB185" d="M842.867,576.569c0,0,15.471,7.705,23.469,5.921c8.006-1.794,18.807-7.386,14.316-9.96
		c-4.479-2.56-16.646-1.671-17.267-4.987c-0.612-3.296,7.024-2.57,3.398-4.357c-3.633-1.818-10.608-2.452-23.669,4.414
		C843.115,567.599,839.309,571.538,842.867,576.569L842.867,576.569z"/>
	<g>
		<defs>
			<path id="SVGID_87_" d="M757.335,496.904c0,0-6.665,2.338-7.188,10.207c0,0,1.887,18.72,16.772,46.094
				c0,0,13.973,26.967,21.208,28.319c7.225,1.333,59.409-0.064,59.409-0.064s-3.137-7.563,0.132-16.934
				c0,0-45.793-4.994-49.169-8.523C795.108,552.479,767.316,499.605,757.335,496.904L757.335,496.904z"/>
		</defs>
		<clipPath id="SVGID_88_">
			<use xlink:href="#SVGID_87_"  overflow="visible"/>
		</clipPath>
		<g clip-path="url(#SVGID_88_)">
			
				<image overflow="visible" width="88" height="76" xlink:href="586BAF9040BE5DC.jpg"  transform="matrix(1.2045 0 0 -1.2045 746.7311 586.1408)">
			</image>
		</g>
	</g>
	<g>
		<defs>
			<path id="SVGID_89_" d="M788.127,581.524c5.676,1.049,45.327,0.258,59.409-0.064c-0.873-1.529-1.338-9.097-1.338-9.097
				s-49.573-1.078-52.959-4.605c-3.387-3.526-26.06-55.793-36.048-58.479c0,0-3.511-1.301-6.789-0.353
				c0.87,5.312,4.343,21.894,16.518,44.278C766.919,553.205,780.89,580.172,788.127,581.524L788.127,581.524z"/>
		</defs>
		<clipPath id="SVGID_90_">
			<use xlink:href="#SVGID_89_"  overflow="visible"/>
		</clipPath>
		<g clip-path="url(#SVGID_90_)">
			
				<image overflow="visible" width="88" height="66" xlink:href="586BAF9040BE5DF.jpg"  transform="matrix(1.2045 0 0 -1.2045 747.9664 585.3328)">
			</image>
		</g>
	</g>
	<path fill="#EFB185" d="M764.551,600.693c0,0,16.43,80.558,7.411,125.223c0,0-4.153,35.221-6.102,44.91
		c-1.99,9.681-1.676,62.369-1.676,62.369s-13.951,6.929-21.414,0c0,0-10.439-54.836,0.051-89.389c0,0-12.356-66.029-12.638-87.528
		c-0.267-21.514-2.983-40.011-2.983-40.011L764.551,600.693L764.551,600.693z"/>
	<path fill="#EFB185" d="M771.962,725.916c0,0-4.153,35.221-6.102,44.91c-1.99,9.681-1.676,62.369-1.676,62.369
		s-2.477,1.008-5.882,1.771c-1.07-15.686-3.066-43.055-3.896-49.235c-1.216-8.803,8.739-57.016,9.535-74.926
		c0.795-17.897-19.053-85.048-19.053-85.048l5.498-19.154l14.164-5.911C764.551,600.693,780.981,681.251,771.962,725.916
		L771.962,725.916z"/>
	<path fill="#6000A1" d="M764.169,823.719c0,0,1.147,10.148,7.763,15.965c5.128,4.507,17.459,15.712,16.101,21.14
		c-1.368,5.436-15.561,6.097-24.57-2.779c-9.038-8.883-11.433-10.238-15.238-11.003c-3.824-0.764-9.862-8.665-6.014-17.044
		c0,0,3.245,1.867,6.234,1.617c2.985-0.247,7.71,0.1,8.828-5.094C757.842,823.875,761.587,823.545,764.169,823.719L764.169,823.719z
		"/>
	<path fill="#EFB185" d="M697.557,627.189c0,0-15.881,22.723-8.215,69.138l3.402,55.438c0,0-10.518,17.752-2.958,71.632
		l7.251,32.397c0,0,8.977,6.58,18.902-6.838c0,0-0.728-79.709,3.022-91.987c2.732-8.967,15.214-46.42,20.124-82.611
		c1.794-13.201,22.21-35.034,21.144-46.469L697.557,627.189L697.557,627.189z"/>
	<path fill="#EFB185" d="M697.036,855.795l-7.251-32.397c-7.56-53.881,2.958-71.632,2.958-71.632l-3.402-55.438
		c-4.057-24.575-1.517-42.511,1.777-53.949c2.924-10.16,4.557-17.333,4.557-17.333l3.707,2.168l17.387,11.239
		c0,0-17.23,87.781-15.968,110.075c1.255,22.298-5.043,48.355-4.198,62.243c0.536,8.916,4.531,31.501,7.313,46.553
		C699.781,857.79,697.036,855.795,697.036,855.795L697.036,855.795z"/>
	<path fill="#6000A1" d="M715.902,843.069c0,0-0.469,10.108,3.759,15.434c4.237,5.349,19.13,24.264,17.655,29.664
		c-1.497,5.404-15.69,5.674-24.502-3.428c-8.818-9.116-7.377-12.307-10.903-16.079c-2.659-2.845-8.796-6.217-5.958-17.7
		c0,0,5.352,2.943,8.43,0.877c1.025-0.688,0.814-6.124,1.95-6.81C709.878,842.886,713.534,842.908,715.902,843.069L715.902,843.069z
		"/>
	<g>
		<defs>
			<path id="SVGID_91_" d="M690.851,750.961c-14.974,41.667-1.791,87.034,0.809,99.69c1.94,9.457,15.429,8.883,24.661-0.99
				c0.883-21.147,0.743-46.319,3.105-77.546c3.568-13.9,6.877-29.709,13.914-66.747c3.379-0.258,3.044,15.351,5.152,40.778
				c0.867,10.474-2.652,86.589-1.074,86.373c8.469-1.154,21.125,3.707,28.746-1.394c0.215-3.543,8.911-85.442,9.087-88.826
				c6.293-120.603-10.701-141.606-10.701-141.606l-14.164,5.911l-5.498,19.154c0,0,0.206,0.697,0.573,1.966l-50.241-0.99
				c0,0-13.545,23.178-5.879,69.594C689.341,696.328,687.141,726.806,690.851,750.961L690.851,750.961z"/>
		</defs>
		<clipPath id="SVGID_92_">
			<use xlink:href="#SVGID_91_"  overflow="visible"/>
		</clipPath>
		<g clip-path="url(#SVGID_92_)">
			
				<image overflow="visible" width="96" height="220" xlink:href="586BAF9040BE5DD.jpg"  transform="matrix(1.2045 0 0 -1.2045 672.8876 863.4829)">
			</image>
		</g>
	</g>
	<g>
		<defs>
			<path id="SVGID_93_" d="M685.301,530.984c0.098-0.375,0.216-0.764,0.35-1.17c0,0,10.342-17.413,28.55-27.569
				c24.7-13.766,42.935-7.317,44.376-4.04c22.156,50.405,20.523,144.782,21.756,171.904c-10.472,15.267-32.167,21.929-60.524,24.484
				c-3.477,0.312-5.423,0.18-7.384-0.095c-2.016-0.157-8.376-3.093-10.515-3.524l0,0c-0.073-0.01-0.149-0.024-0.227-0.049
				c-9.467-1.963-18.911-6.805-17.992-16.08c1.393-14.107,9.814-67.384,3.362-92.745c-6.45-25.362-5.605-36.468-1.752-51.116l0,0
				H685.301z"/>
		</defs>
		<clipPath id="SVGID_94_">
			<use xlink:href="#SVGID_93_"  overflow="visible"/>
		</clipPath>
		<g clip-path="url(#SVGID_94_)">
			
				<image overflow="visible" width="88" height="175" xlink:href="586BAF9040BE5C2.jpg"  transform="matrix(1.2045 0 0 -1.2045 677.5205 697.4001)">
			</image>
		</g>
	</g>
	<g>
		<defs>
			<path id="SVGID_95_" d="M685.301,530.984c-3.853,14.648-4.698,25.754,1.752,51.116c6.455,25.361-1.969,78.638-3.362,92.745
				c-1.321,13.316,22.948,20.146,33.75,19.78c2.818-25.312-1.081-104-7.051-145.698
				C708.109,533.007,685.301,530.984,685.301,530.984L685.301,530.984z"/>
		</defs>
		<clipPath id="SVGID_96_">
			<use xlink:href="#SVGID_95_"  overflow="visible"/>
		</clipPath>
		<g clip-path="url(#SVGID_96_)">
			
				<image overflow="visible" width="40" height="140" xlink:href="586BAF9040BE5C6.jpg"  transform="matrix(1.2045 0 0 -1.2045 677.4568 697.6352)">
			</image>
		</g>
	</g>
	<path fill="#E8A476" d="M749.112,483.965c0,0-7.94,14.796-0.602,26.405c4.083,6.452,3.019,16.491-19.39,12.265
		c0,0-23.697-9.786-17.377-17.208c4.179-4.946,8.082-11.92-0.448-34.998L749.112,483.965L749.112,483.965z"/>
	<path fill="#DB9669" d="M711.743,505.427c-0.7,0.803-0.988,1.595-0.988,2.372c21.284,2.571,34.557-13.312,34.557-13.312
		l-29.057-21.97c0,0-1.309,1.034-3.257,2.762C719.245,494.502,715.614,500.855,711.743,505.427L711.743,505.427z"/>
	<path fill="#F1B287" d="M742.256,442.413c0,0,8.431,1.703,9.993,19.211c0.187,1.931,0.611,33.422-10.546,36.363
		c-8.088,2.122-23.25-1.784-31.565-20.924C701.86,457.939,716.674,431.327,742.256,442.413L742.256,442.413z"/>
	<path fill="#E8A476" d="M742.256,442.413c0,0,8.431,1.703,9.993,19.211c0.187,1.931-1.229,7.964-12.388,10.908
		c-8.084,2.12-26.256,6.227-28.118-0.88C706.457,451.491,716.674,431.327,742.256,442.413L742.256,442.413z"/>
	<path fill="#F1B287" d="M720.404,479.647c0,0-3.848-9.457-9.193-6.07c-1.668,1.085-3.415,3.232-0.373,8.026
		c3.068,4.774,8.95,8.879,13.297,7.994L720.404,479.647L720.404,479.647z"/>
	<g>
		<defs>
			<path id="SVGID_97_" d="M740.908,434.407c-8.41-7.127-18.622-5.586-28.513-2.379c-8.555,2.771-16.902,11.833-17.149,20.249
				c-0.26,8.018,1.492,17.673,7.11,25.177c2.554,3.408,14.123,19.468,14.01,14.636c-0.086-3.736,1.461-7.247-0.646-16.611
				c-0.479-2.127,2.825-3.782,4.397-4.421c1.139,0.548,9.098,2.909,18.96-7.279c0.505-0.524,8.695-16.384,6.237-9.856
				c-0.328,0.872-2.478,8.564-1.657,8.283c4.906-1.737,8.241-4.114,8.241-4.114C753.907,449.547,746.868,439.477,740.908,434.407
				L740.908,434.407z"/>
		</defs>
		<clipPath id="SVGID_98_">
			<use xlink:href="#SVGID_97_"  overflow="visible"/>
		</clipPath>
		<g clip-path="url(#SVGID_98_)">
			
				<image overflow="visible" width="56" height="62" xlink:href="586BAF9040BE5C1.jpg"  transform="matrix(1.2045 0 0 -1.2045 692.3509 499.9229)">
			</image>
		</g>
	</g>
	<path fill="#F1B287" d="M717.493,471.778c3.147,2.859,4.304,6.704,2.581,8.581c-1.726,1.852-5.63,1.059-8.788-1.784
		c-3.115-2.88-4.279-6.712-2.571-8.578C710.427,468.096,714.371,468.898,717.493,471.778L717.493,471.778z"/>
	<path fill="#EFB185" d="M692.923,667.479c0,0,0.514,17.262,5.87,23.472c5.327,6.21,15.348,13.102,15.498,7.947
		c0.147-5.183-6.357-15.488-3.721-17.597c2.635-2.123,5.568,4.989,5.448,0.945c-0.103-4.05-2.833-10.498-15.074-18.796
		C700.943,663.449,695.68,661.925,692.923,667.479L692.923,667.479z"/>
	<g>
		<defs>
			<path id="SVGID_99_" d="M694.829,524.799c0,0,12.733,0.912,15.214,21.656c2.909,24.357-11.913,59.99-11.913,59.99l7.84,59.906
				c0,0-10.364,1.632-12.437,9.596c0,0-14.145-40.004-19.234-65.279C674.298,610.668,673.663,520.429,694.829,524.799
				L694.829,524.799z"/>
		</defs>
		<clipPath id="SVGID_100_">
			<use xlink:href="#SVGID_99_"  overflow="visible"/>
		</clipPath>
		<g clip-path="url(#SVGID_100_)">
			
				<image overflow="visible" width="40" height="133" xlink:href="586BAF9040BE623.jpg"  transform="matrix(1.2045 0 0 -1.2045 670.1364 679.0987)">
			</image>
		</g>
	</g>
	<g>
		<defs>
			<path id="SVGID_101_" d="M694.829,524.799c-16.233,8.296-12.324,52.324-12.52,89.067c0,0,10.935,38.134,17.144,54.867
				c-2.52,1.454-5.014,3.729-5.921,7.214c0,0-14.145-40.004-19.234-65.279C674.298,610.668,673.663,520.429,694.829,524.799
				L694.829,524.799z"/>
		</defs>
		<clipPath id="SVGID_102_">
			<use xlink:href="#SVGID_101_"  overflow="visible"/>
		</clipPath>
		<g clip-path="url(#SVGID_102_)">
			
				<image overflow="visible" width="28" height="133" xlink:href="586BAF9040BE621.jpg"  transform="matrix(1.2045 0 0 -1.2045 670.2393 679.0987)">
			</image>
		</g>
	</g>
	<path fill="#EFB185" d="M1747.857,667.073c0,0-14.729,7.335-22.339,5.635c-7.623-1.706-17.905-7.028-13.633-9.476
		c4.267-2.444,15.848-1.593,16.439-4.752c0.585-3.137-6.689-2.446-3.234-4.147c3.456-1.73,10.095-2.332,22.529,4.203
		C1747.619,658.536,1751.243,662.285,1747.857,667.073L1747.857,667.073z"/>
	<g>
		<defs>
			<path id="SVGID_103_" d="M1844.917,531.742c8.006-6.784,17.725-5.319,27.141-2.265c8.146,2.64,12.486,7.396,16.352,16.427
				c7.489,17.506,5.774,30.856,7.024,35.966c5.004,20.455,32.578,38.671,1.99,85.372c-2.222,3.393-76.641-27.054-77.823-48.752
				c-1.333-24.601,9.781-34.18,12.732-36.817c7.667-6.854,23.714-12.27,14.326-21.972c-0.479-0.495-8.275-15.593-5.936-9.378
				c0.311,0.829,2.362,8.153,1.576,7.886c-4.668-1.656-7.847-3.918-7.847-3.918C1832.544,546.151,1839.244,536.57,1844.917,531.742
				L1844.917,531.742z"/>
		</defs>
		<clipPath id="SVGID_104_">
			<use xlink:href="#SVGID_103_"  overflow="visible"/>
		</clipPath>
		<g clip-path="url(#SVGID_104_)">
			
				<image overflow="visible" width="96" height="125" xlink:href="586BAF9040BE627.jpg"  transform="matrix(1.2045 0 0 -1.2045 1814.8525 674.0752)">
			</image>
		</g>
	</g>
	<g>
		<defs>
			<path id="SVGID_105_" d="M1829.28,591.234c0,0,6.344,2.229,6.839,9.719c0,0-1.791,17.819-15.963,43.879
				c0,0-13.302,25.671-20.189,26.962c-6.878,1.261-56.556-2.155-56.556-2.155s2.987-5.107-0.127-14.03
				c0,0,43.595-4.757,46.808-8.114C1793.319,644.138,1819.776,593.806,1829.28,591.234L1829.28,591.234z"/>
		</defs>
		<clipPath id="SVGID_106_">
			<use xlink:href="#SVGID_105_"  overflow="visible"/>
		</clipPath>
		<g clip-path="url(#SVGID_106_)">
			
				<image overflow="visible" width="84" height="72" xlink:href="586BAF9040BE622.jpg"  transform="matrix(1.2045 0 0 -1.2045 1740.1447 676.2778)">
			</image>
		</g>
	</g>
	<g>
		<defs>
			<path id="SVGID_107_" d="M1799.969,671.794c-5.405,0.997-43.153-1.851-56.558-2.155c0.834-1.456,0.946-1.97,0.946-1.97
				s47.523-5.627,50.74-8.984c3.227-3.357,24.807-53.115,34.317-55.667c0,0,3.343-1.237,6.464-0.335
				c-0.829,5.054-4.137,20.841-15.723,42.149C1820.156,644.832,1806.854,670.503,1799.969,671.794L1799.969,671.794z"/>
		</defs>
		<clipPath id="SVGID_108_">
			<use xlink:href="#SVGID_107_"  overflow="visible"/>
		</clipPath>
		<g clip-path="url(#SVGID_108_)">
			
				<image overflow="visible" width="84" height="63" xlink:href="586BAF9040BE62D.jpg"  transform="matrix(1.2045 0 0 -1.2045 1740.1152 675.3375)">
			</image>
		</g>
	</g>
	<path fill="#EFB185" d="M1822.41,690.038c0,0-15.642,76.689-7.056,119.202c0,0,3.953,33.532,5.808,42.754
		c1.895,9.22,1.595,59.374,1.595,59.374s13.283,6.593,20.384,0c0,0,9.94-52.198-0.049-85.095c0,0,11.763-62.854,12.03-83.32
		c0.257-20.482,2.841-38.09,2.841-38.09L1822.41,690.038L1822.41,690.038z"/>
	<path fill="#EFB185" d="M1822.775,902.347c0,0-1.093,9.661-7.394,15.197c-4.881,4.291-16.622,14.957-15.326,20.128
		c1.301,5.173,14.814,5.8,23.387-2.649c8.608-8.453,10.885-9.745,14.51-10.472c3.637-0.731,9.386-8.251,5.725-16.226
		c0,0-3.093,1.778-5.936,1.539c-2.843-0.235-7.338,0.098-8.405-4.852C1828.794,902.496,1825.231,902.183,1822.775,902.347
		L1822.775,902.347z"/>
	<path fill="#EFB185" d="M1886.184,715.261c0,0,15.121,21.634,7.822,65.817l-3.24,52.775c0,0,10.013,16.897,2.816,68.188
		l-6.899,30.841c0,0-8.55,6.264-17.995-6.506c0,0,0.689-75.882-2.878-87.568c-2.603-8.536-14.482-44.19-19.16-78.644
		c-1.705-12.567-21.139-33.35-20.122-44.237L1886.184,715.261L1886.184,715.261z"/>
	<path fill="#EFB185" d="M1868.72,920.766c0,0,0.447,9.625-3.575,14.695c-4.036,5.092-18.211,23.095-16.809,28.242
		c1.426,5.141,14.937,5.396,23.325-3.265c8.394-8.679,7.021-11.718,10.379-15.309c2.534-2.705,8.372-5.917,5.674-16.848
		c0,0-5.098,2.801-8.027,0.836c-0.974-0.654-0.774-5.833-1.86-6.484C1874.455,920.592,1870.975,920.614,1868.72,920.766
		L1868.72,920.766z"/>
	<g>
		<defs>
			<path id="SVGID_109_" d="M1822.775,902.347c0,0-1.093,9.661-7.394,15.197c-2.44,2.147-17.316,16.687-19.604,18.961
				c-3.789,3.756,19.893,9.863,30.709-2.417c5.046-5.728,5.427-6.707,7.636-8.182c2.629-1.754,3.781,5.521,6.604,4.933
				c2.041-0.426,1.985-9.256,3.316-12.836c1.037-2.787,1.235-6.19-0.365-9.678c0,0-3.093,1.778-5.936,1.539
				c-2.843-0.235-7.338,0.098-8.405-4.852C1828.794,902.496,1825.231,902.183,1822.775,902.347L1822.775,902.347z"/>
		</defs>
		<clipPath id="SVGID_110_">
			<use xlink:href="#SVGID_109_"  overflow="visible"/>
		</clipPath>
		<g clip-path="url(#SVGID_110_)">
			
				<image overflow="visible" width="52" height="41" xlink:href="586BAF9040BE62E.jpg"  transform="matrix(1.2045 0 0 -1.2045 1788.915 949.8441)">
			</image>
		</g>
	</g>
	<g>
		<defs>
			<path id="SVGID_111_" d="M1868.72,920.766c0,0,0.447,9.625-3.575,14.695c-4.036,5.092-18.211,23.095-16.809,28.242
				c1.426,5.141,14.937,5.396,23.325-3.265c8.394-8.679,7.021-11.718,10.379-15.309c0.872-0.93,0.504,4.073,4.796,1.695
				c1.558-0.863,1.573-7.978,1.573-11.306c0-2.178,0.147-3.818-0.696-7.237c0,0-5.098,2.801-8.027,0.836
				c-0.974-0.654-0.774-5.833-1.86-6.484C1874.455,920.592,1870.975,920.614,1868.72,920.766L1868.72,920.766z"/>
		</defs>
		<clipPath id="SVGID_112_">
			<use xlink:href="#SVGID_111_"  overflow="visible"/>
		</clipPath>
		<g clip-path="url(#SVGID_112_)">
			
				<image overflow="visible" width="40" height="45" xlink:href="586BAF9040BE62F.jpg"  transform="matrix(1.2045 0 0 -1.2045 1843.3636 972.5848)">
			</image>
		</g>
	</g>
	<g>
		<defs>
			<path id="SVGID_113_" d="M1891.579,820.607c-36.466,18.701-79.555-5.656-79.724-8.879c-1.972-37.77-1.502-63.859,0.012-81.865
				c3.093-36.725,29.258-15.964,29.258-15.964s-0.196,0.665-0.546,1.872l45.604-0.509c0,0,17.299,22.163,10,66.346
				C1896.184,781.606,1896.16,804.964,1891.579,820.607L1891.579,820.607z"/>
		</defs>
		<clipPath id="SVGID_114_">
			<use xlink:href="#SVGID_113_"  overflow="visible"/>
		</clipPath>
		<g transform="matrix(1 0 0 1 -1.220703e-04 0)" clip-path="url(#SVGID_114_)">
			
				<image overflow="visible" width="84" height="125" xlink:href="586BAF9040BE624.jpg"  transform="matrix(1.2045 0 0 -1.2045 1806.2944 842.3606)">
			</image>
		</g>
	</g>
	<g>
		<defs>
			<path id="SVGID_115_" d="M1897.517,622.562c0,0-9.846-16.576-27.178-26.239c-23.511-13.108-41.396-7.149-42.243-3.849
				c-8.203,32.02-22.904,52.333-15.317,72.195c10.155,26.591,0.796,48.479-1.889,59.391c-3.115,12.665,30.012,25.552,57.006,27.984
				c6.229,0.563,7.293-0.372,13.02-0.927c3.75-0.367,10.883-22.748,7.602-35.857c-3.281-13.087-13.1-34.844-6.954-58.987
				C1887.706,632.135,1901.618,634.85,1897.517,622.562L1897.517,622.562z"/>
		</defs>
		<clipPath id="SVGID_116_">
			<use xlink:href="#SVGID_115_"  overflow="visible"/>
		</clipPath>
		<g clip-path="url(#SVGID_116_)">
			
				<image overflow="visible" width="88" height="144" xlink:href="586BAF9040BE625.jpg"  transform="matrix(1.2045 0 0 -1.2045 1802.1807 755.1032)">
			</image>
		</g>
	</g>
	<g>
		<defs>
			<path id="SVGID_117_" d="M1897.853,623.68c3.664,13.944,4.472,24.516-1.669,48.658c-6.146,24.141,0.748,50.001,2.079,63.429
				c1.255,12.678-17.829,16.657-28.112,16.312c-2.684-24.095-5.212-93.778,11.888-115.043
				C1886.928,630.959,1897.853,623.68,1897.853,623.68L1897.853,623.68z"/>
		</defs>
		<clipPath id="SVGID_118_">
			<use xlink:href="#SVGID_117_"  overflow="visible"/>
		</clipPath>
		<g transform="matrix(1 0 0 1 -1.220703e-04 0)" clip-path="url(#SVGID_118_)">
			
				<image overflow="visible" width="36" height="111" xlink:href="586BAF9040BE626.jpg"  transform="matrix(1.2045 0 0 -1.2045 1862.4658 755.9418)">
			</image>
		</g>
	</g>
	<path fill="#E8A476" d="M1837.109,578.917c0,0,12.974,10.832,0.569,25.138c-2.934,3.382-2.875,15.696,18.458,11.675
		c0,0,22.561-9.317,16.545-16.383c-3.978-4.708-7.697-11.344,0.424-33.312L1837.109,578.917L1837.109,578.917z"/>
	<path fill="#DB9669" d="M1872.68,599.348c0.666,0.768,0.94,1.517,0.94,2.263c-20.261,2.445-32.897-12.676-32.897-12.676
		l27.66-20.913c0,0,1.245,0.982,3.103,2.626C1865.539,588.95,1868.995,594.998,1872.68,599.348L1872.68,599.348z"/>
	<path fill="#F1B287" d="M1843.633,539.364c0,0-8.023,1.625-9.511,18.287c-0.18,1.838-0.584,31.819,10.037,34.617
		c7.698,2.02,22.132-1.701,30.048-19.919C1882.091,554.14,1867.985,528.811,1843.633,539.364L1843.633,539.364z"/>
	<path fill="#E8A476" d="M1843.633,539.364c0,0-8.023,1.625-9.511,18.287c-0.18,1.838,1.169,7.585,11.789,10.386
		c7.699,2.016,24.997,5.925,26.769-0.839C1877.711,548.004,1867.985,528.811,1843.633,539.364L1843.633,539.364z"/>
	<path fill="#F1B287" d="M1864.436,574.81c0,0,3.662-9.006,8.749-5.781c1.588,1.035,3.252,3.076,0.355,7.641
		c-2.921,4.546-8.518,8.45-12.66,7.609L1864.436,574.81L1864.436,574.81z"/>
	<g>
		<defs>
			<path id="SVGID_119_" d="M1844.917,531.742c8.006-6.784,17.725-5.319,27.141-2.265c8.146,2.64,16.09,11.264,16.325,19.277
				c0.247,7.634-1.424,16.826-6.766,23.968c-2.432,3.245-12.275,22.774-13.036,18.238c-2.034-12.155,3.917-10.521,0.315-20.116
				c-0.731-1.945-3.415,3.1-4.907,2.49c-26.033-5.683-29.537-19.043-29.537-19.043
				C1832.544,546.151,1839.244,536.57,1844.917,531.742L1844.917,531.742z"/>
		</defs>
		<clipPath id="SVGID_120_">
			<use xlink:href="#SVGID_119_"  overflow="visible"/>
		</clipPath>
		<g clip-path="url(#SVGID_120_)">
			
				<image overflow="visible" width="52" height="62" xlink:href="586BAF9040BE60A.jpg"  transform="matrix(1.2045 0 0 -1.2045 1830.005 597.9263)">
			</image>
		</g>
	</g>
	<path fill="#F1B287" d="M1867.208,567.315c-2.995,2.72-4.097,6.384-2.46,8.172c1.644,1.763,5.361,1.008,8.368-1.703
		c2.963-2.739,4.073-6.386,2.449-8.16C1873.933,563.811,1870.178,564.575,1867.208,567.315L1867.208,567.315z"/>
	<path fill="#EFB185" d="M1858.91,716.552c0,0-11.226,12.006-18.959,13.073c-7.713,1.083-19.207-0.299-16.073-4.072
		c3.159-3.797,14.289-7.063,13.731-10.232c-0.547-3.174-7.117,0.061-4.485-2.752c2.622-2.828,8.629-5.718,22.595-3.945
		C1855.72,708.625,1860.437,710.849,1858.91,716.552L1858.91,716.552z"/>
	<g>
		<defs>
			<path id="SVGID_121_" d="M1887.953,617.049c0,0-12.454,1.637-9.413,20.44c3.027,18.82,8.04,50.334,8.04,50.334l-0.458,4.965
				l-36.559,15.267c0,0,9.226,4.157,4.485,13.2c0,0,52.845-3.777,57.581-23.571C1911.629,697.684,1907.862,611.865,1887.953,617.049
				L1887.953,617.049z"/>
		</defs>
		<clipPath id="SVGID_122_">
			<use xlink:href="#SVGID_121_"  overflow="visible"/>
		</clipPath>
		<g transform="matrix(1 0 0 1 0 6.103516e-05)" clip-path="url(#SVGID_122_)">
			
				<image overflow="visible" width="60" height="95" xlink:href="586BAF9040BE609.jpg"  transform="matrix(1.2045 0 0 -1.2045 1846.4319 724.2866)">
			</image>
		</g>
	</g>
	<g>
		<defs>
			<path id="SVGID_123_" d="M1849.564,708.055l36.559-15.267l0.458-4.965c0,0-5.014-31.513-8.04-50.334
				c-2.576-15.926,5.928-19.53,8.606-20.267c10.523,20.435,12.82,72.863,12.82,72.863c-3.301,13.759-29.328,20.455-45.212,23.359
				C1852.98,709.83,1849.564,708.055,1849.564,708.055L1849.564,708.055z"/>
		</defs>
		<clipPath id="SVGID_124_">
			<use xlink:href="#SVGID_123_"  overflow="visible"/>
		</clipPath>
		<g transform="matrix(1 0 0 1 -1.220703e-04 0)" clip-path="url(#SVGID_124_)">
			
				<image overflow="visible" width="48" height="84" xlink:href="586BAF9040BE606.jpg"  transform="matrix(1.2045 0 0 -1.2045 1847.0122 716.4226)">
			</image>
		</g>
	</g>
</g>
</svg>
