<svg id="visual" viewBox="0 0 2160 1080" width="2160" height="1080" xmlns="http://www.w3.org/2000/svg" xmlns:xlink="http://www.w3.org/1999/xlink" version="1.1"><rect x="0" y="0" width="2160" height="1080" fill="#001220"></rect><path d="M0 659L51.5 668C103 677 206 695 308.8 700C411.7 705 514.3 697 617.2 705.8C720 714.7 823 740.3 925.8 744.5C1028.7 748.7 1131.3 731.3 1234.2 713.8C1337 696.3 1440 678.7 1542.8 677.7C1645.7 676.7 1748.3 692.3 1851.2 708.5C1954 724.7 2057 741.3 2108.5 749.7L2160 758L2160 1081L2108.5 1081C2057 1081 1954 1081 1851.2 1081C1748.3 1081 1645.7 1081 1542.8 1081C1440 1081 1337 1081 1234.2 1081C1131.3 1081 1028.7 1081 925.8 1081C823 1081 720 1081 617.2 1081C514.3 1081 411.7 1081 308.8 1081C206 1081 103 1081 51.5 1081L0 1081Z" fill="#3c5ae0"></path><path d="M0 727L51.5 729.3C103 731.7 206 736.3 308.8 746.8C411.7 757.3 514.3 773.7 617.2 793.7C720 813.7 823 837.3 925.8 829.7C1028.7 822 1131.3 783 1234.2 760.7C1337 738.3 1440 732.7 1542.8 734.3C1645.7 736 1748.3 745 1851.2 762.5C1954 780 2057 806 2108.5 819L2160 832L2160 1081L2108.5 1081C2057 1081 1954 1081 1851.2 1081C1748.3 1081 1645.7 1081 1542.8 1081C1440 1081 1337 1081 1234.2 1081C1131.3 1081 1028.7 1081 925.8 1081C823 1081 720 1081 617.2 1081C514.3 1081 411.7 1081 308.8 1081C206 1081 103 1081 51.5 1081L0 1081Z" fill="#3047b9"></path><path d="M0 879L51.5 876.3C103 873.7 206 868.3 308.8 861.2C411.7 854 514.3 845 617.2 839.8C720 834.7 823 833.3 925.8 842.3C1028.7 851.3 1131.3 870.7 1234.2 867.8C1337 865 1440 840 1542.8 836C1645.7 832 1748.3 849 1851.2 848C1954 847 2057 828 2108.5 818.5L2160 809L2160 1081L2108.5 1081C2057 1081 1954 1081 1851.2 1081C1748.3 1081 1645.7 1081 1542.8 1081C1440 1081 1337 1081 1234.2 1081C1131.3 1081 1028.7 1081 925.8 1081C823 1081 720 1081 617.2 1081C514.3 1081 411.7 1081 308.8 1081C206 1081 103 1081 51.5 1081L0 1081Z" fill="#233593"></path><path d="M0 880L51.5 882.3C103 884.7 206 889.3 308.8 892.7C411.7 896 514.3 898 617.2 902.7C720 907.3 823 914.7 925.8 912.7C1028.7 910.7 1131.3 899.3 1234.2 895.8C1337 892.3 1440 896.7 1542.8 900C1645.7 903.3 1748.3 905.7 1851.2 911.3C1954 917 2057 926 2108.5 930.5L2160 935L2160 1081L2108.5 1081C2057 1081 1954 1081 1851.2 1081C1748.3 1081 1645.7 1081 1542.8 1081C1440 1081 1337 1081 1234.2 1081C1131.3 1081 1028.7 1081 925.8 1081C823 1081 720 1081 617.2 1081C514.3 1081 411.7 1081 308.8 1081C206 1081 103 1081 51.5 1081L0 1081Z" fill="#16246f"></path><path d="M0 1007L51.5 1002.8C103 998.7 206 990.3 308.8 983.7C411.7 977 514.3 972 617.2 977.5C720 983 823 999 925.8 1006.3C1028.7 1013.7 1131.3 1012.3 1234.2 1014.3C1337 1016.3 1440 1021.7 1542.8 1024.7C1645.7 1027.7 1748.3 1028.3 1851.2 1014.7C1954 1001 2057 973 2108.5 959L2160 945L2160 1081L2108.5 1081C2057 1081 1954 1081 1851.2 1081C1748.3 1081 1645.7 1081 1542.8 1081C1440 1081 1337 1081 1234.2 1081C1131.3 1081 1028.7 1081 925.8 1081C823 1081 720 1081 617.2 1081C514.3 1081 411.7 1081 308.8 1081C206 1081 103 1081 51.5 1081L0 1081Z" fill="#08154d"></path></svg>