<svg id="visual" viewBox="0 0 2160 1080" width="2160" height="1080" xmlns="http://www.w3.org/2000/svg" xmlns:xlink="http://www.w3.org/1999/xlink" version="1.1"><rect x="0" y="0" width="2160" height="1080" fill="#001220"></rect><path d="M0 419L51.5 410C103 401 206 383 308.8 378C411.7 373 514.3 381 617.2 372.2C720 363.3 823 337.7 925.8 333.5C1028.7 329.3 1131.3 346.7 1234.2 364.2C1337 381.7 1440 399.3 1542.8 400.3C1645.7 401.3 1748.3 385.7 1851.2 369.5C1954 353.3 2057 336.7 2108.5 328.3L2160 320L2160 0L2108.5 0C2057 0 1954 0 1851.2 0C1748.3 0 1645.7 0 1542.8 0C1440 0 1337 0 1234.2 0C1131.3 0 1028.7 0 925.8 0C823 0 720 0 617.2 0C514.3 0 411.7 0 308.8 0C206 0 103 0 51.5 0L0 0Z" fill="#3c5ae0"></path><path d="M0 351L51.5 348.7C103 346.3 206 341.7 308.8 331.2C411.7 320.7 514.3 304.3 617.2 284.3C720 264.3 823 240.7 925.8 248.3C1028.7 256 1131.3 295 1234.2 317.3C1337 339.7 1440 345.3 1542.8 343.7C1645.7 342 1748.3 333 1851.2 315.5C1954 298 2057 272 2108.5 259L2160 246L2160 0L2108.5 0C2057 0 1954 0 1851.2 0C1748.3 0 1645.7 0 1542.8 0C1440 0 1337 0 1234.2 0C1131.3 0 1028.7 0 925.8 0C823 0 720 0 617.2 0C514.3 0 411.7 0 308.8 0C206 0 103 0 51.5 0L0 0Z" fill="#3047b9"></path><path d="M0 199L51.5 201.7C103 204.3 206 209.7 308.8 216.8C411.7 224 514.3 233 617.2 238.2C720 243.3 823 244.7 925.8 235.7C1028.7 226.7 1131.3 207.3 1234.2 210.2C1337 213 1440 238 1542.8 242C1645.7 246 1748.3 229 1851.2 230C1954 231 2057 250 2108.5 259.5L2160 269L2160 0L2108.5 0C2057 0 1954 0 1851.2 0C1748.3 0 1645.7 0 1542.8 0C1440 0 1337 0 1234.2 0C1131.3 0 1028.7 0 925.8 0C823 0 720 0 617.2 0C514.3 0 411.7 0 308.8 0C206 0 103 0 51.5 0L0 0Z" fill="#233593"></path><path d="M0 198L51.5 195.7C103 193.3 206 188.7 308.8 185.3C411.7 182 514.3 180 617.2 175.3C720 170.7 823 163.3 925.8 165.3C1028.7 167.3 1131.3 178.7 1234.2 182.2C1337 185.7 1440 181.3 1542.8 178C1645.7 174.7 1748.3 172.3 1851.2 166.7C1954 161 2057 152 2108.5 147.5L2160 143L2160 0L2108.5 0C2057 0 1954 0 1851.2 0C1748.3 0 1645.7 0 1542.8 0C1440 0 1337 0 1234.2 0C1131.3 0 1028.7 0 925.8 0C823 0 720 0 617.2 0C514.3 0 411.7 0 308.8 0C206 0 103 0 51.5 0L0 0Z" fill="#16246f"></path><path d="M0 71L51.5 75.2C103 79.3 206 87.7 308.8 94.3C411.7 101 514.3 106 617.2 100.5C720 95 823 79 925.8 71.7C1028.7 64.3 1131.3 65.7 1234.2 63.7C1337 61.7 1440 56.3 1542.8 53.3C1645.7 50.3 1748.3 49.7 1851.2 63.3C1954 77 2057 105 2108.5 119L2160 133L2160 0L2108.5 0C2057 0 1954 0 1851.2 0C1748.3 0 1645.7 0 1542.8 0C1440 0 1337 0 1234.2 0C1131.3 0 1028.7 0 925.8 0C823 0 720 0 617.2 0C514.3 0 411.7 0 308.8 0C206 0 103 0 51.5 0L0 0Z" fill="#08154d"></path></svg>